<svg width="159" height="140" viewBox="0 0 159 140" fill="none" xmlns="http://www.w3.org/2000/svg">
<path d="M117.167 24.7916C126.027 24.7916 133.209 31.9741 133.209 40.8336V99.1666C133.209 108.026 126.026 115.209 117.167 115.209H23.8337C14.9742 115.209 7.79175 108.026 7.79175 99.1666V40.8336C7.79175 31.974 14.9742 24.7916 23.8337 24.7916H117.167ZM103.251 49.9918C101.865 48.0124 99.1374 47.531 97.158 48.9166L70.5007 67.5768L43.8425 48.9166C41.8631 47.531 39.1354 48.0124 37.7498 49.9918C36.3643 51.9713 36.8455 54.699 38.825 56.0846L67.9919 76.5016C69.4983 77.5557 71.5033 77.5559 73.0095 76.5016L102.176 56.0846C104.155 54.699 104.636 51.9713 103.251 49.9918Z" fill="#FEE7C4"/>
<rect x="90.5" y="72" width="64" height="64" rx="32" fill="white"/>
<path d="M122.5 76C137.964 76 150.5 88.536 150.5 104C150.5 119.464 137.964 132 122.5 132C107.036 132 94.5 119.464 94.5 104C94.5001 88.5361 107.036 76.0001 122.5 76Z" fill="#FBB040"/>
<path d="M114.485 112.485L122.971 104M131.456 95.5147L122.971 104M122.971 104L114.485 95.5147M122.971 104L131.456 112.485" stroke="white" stroke-width="4" stroke-linecap="round" stroke-linejoin="round"/>
</svg>
