<svg id="loginLogoBEE" xmlns="http://www.w3.org/2000/svg" width="248.077" height="33.743" viewBox="0 0 248.077 33.743">
  <path id="Path_425" data-name="Path 425" d="M126.231,157.276A7.549,7.549,0,0,1,127.7,162a6.973,6.973,0,0,1-3.086,6.1q-3.081,2.14-9,2.138H100v-30.2h14.758q5.518,0,8.477,2.114a6.7,6.7,0,0,1,2.957,5.74,7.249,7.249,0,0,1-4.014,6.641A7.975,7.975,0,0,1,126.231,157.276ZM106.949,145.3v7.12h6.944a7.018,7.018,0,0,0,3.925-.905,3.023,3.023,0,0,0,1.337-2.674,2.972,2.972,0,0,0-1.337-2.654,7.136,7.136,0,0,0-3.925-.886Zm12.317,18.772a3.108,3.108,0,0,0,1.4-2.806q0-3.755-5.564-3.753h-8.152v7.465H115.1A7.767,7.767,0,0,0,119.265,164.073Z" transform="translate(-100 -136.931)" fill="#ff6900"/>
  <path id="Path_426" data-name="Path 426" d="M265.909,180.677H248.35a5.469,5.469,0,0,0,2.243,3.409,7.46,7.46,0,0,0,4.4,1.25,8.836,8.836,0,0,0,3.213-.541,7.809,7.809,0,0,0,2.61-1.7l3.582,3.882q-3.275,3.755-9.578,3.753a15.124,15.124,0,0,1-6.944-1.531,11.212,11.212,0,0,1-4.659-4.252,11.666,11.666,0,0,1-1.64-6.17,11.882,11.882,0,0,1,1.617-6.147,11.359,11.359,0,0,1,4.441-4.269,13.781,13.781,0,0,1,12.493-.067,10.724,10.724,0,0,1,4.336,4.207,12.559,12.559,0,0,1,1.573,6.366C266.04,178.951,266,179.554,265.909,180.677Zm-15.745-7.465a5.5,5.5,0,0,0-1.9,3.54H259.7a5.565,5.565,0,0,0-1.9-3.518,5.67,5.67,0,0,0-3.8-1.317A5.8,5.8,0,0,0,250.163,173.213Z" transform="translate(-206.458 -157.076)" fill="#ff6900"/>
  <path id="Path_427" data-name="Path 427" d="M393.039,180.677H375.48a5.469,5.469,0,0,0,2.243,3.409,7.46,7.46,0,0,0,4.4,1.25,8.837,8.837,0,0,0,3.213-.541,7.809,7.809,0,0,0,2.61-1.7l3.582,3.882q-3.275,3.755-9.578,3.753a15.124,15.124,0,0,1-6.944-1.531,11.212,11.212,0,0,1-4.659-4.252,11.665,11.665,0,0,1-1.64-6.17,11.881,11.881,0,0,1,1.617-6.147,11.359,11.359,0,0,1,4.441-4.269,13.781,13.781,0,0,1,12.493-.067A10.724,10.724,0,0,1,391.6,172.5a12.559,12.559,0,0,1,1.573,6.366C393.168,178.951,393.126,179.554,393.039,180.677Zm-15.748-7.465a5.5,5.5,0,0,0-1.9,3.54h11.431a5.565,5.565,0,0,0-1.9-3.518,5.67,5.67,0,0,0-3.8-1.317A5.8,5.8,0,0,0,377.291,173.213Z" transform="translate(-302.05 -157.076)" fill="#ff6900"/>
  <path id="Path_428" data-name="Path 428" d="M505.848,167.349a14.845,14.845,0,0,1-5.825-5.564,16.049,16.049,0,0,1,0-15.921,14.828,14.828,0,0,1,5.825-5.564,18.257,18.257,0,0,1,16.653,0,14.917,14.917,0,0,1,5.825,5.544,16.123,16.123,0,0,1,0,15.961,14.9,14.9,0,0,1-5.825,5.544,18.257,18.257,0,0,1-16.653,0Zm13.763-4.269a9.849,9.849,0,0,0,3.8-3.8,11.477,11.477,0,0,0,0-10.91,9.849,9.849,0,0,0-3.8-3.8,11.55,11.55,0,0,0-10.873,0,9.816,9.816,0,0,0-3.8,3.8,11.477,11.477,0,0,0,0,10.91,9.816,9.816,0,0,0,3.8,3.8,11.55,11.55,0,0,0,10.873,0Z" transform="translate(-399.199 -135.616)" fill="#716f6f"/>
  <path id="Path_429" data-name="Path 429" d="M665.018,139.58v1.379h6.341v4.316h-6.17v18.551H659.8V145.276H656v-4.316h3.8v-1.469a7.854,7.854,0,0,1,2.158-5.845,9.9,9.9,0,0,1,10.957-.886l-1.511,4.056a5.159,5.159,0,0,0-2.977-.948Q665.019,135.869,665.018,139.58Z" transform="translate(-518.071 -130.518)" fill="#716f6f"/>
  <path id="Path_430" data-name="Path 430" d="M746.57,136.572v1.379h6.341v4.316h-6.17v18.551h-5.393V142.268h-3.8v-4.316h3.8v-1.469a7.852,7.852,0,0,1,2.156-5.845,9.9,9.9,0,0,1,10.957-.886l-1.511,4.056a5.153,5.153,0,0,0-2.977-.948Q746.569,132.861,746.57,136.572Zm13.676-3.518a3.173,3.173,0,0,1,0-4.614,3.465,3.465,0,0,1,2.458-.93,3.572,3.572,0,0,1,2.461.886,2.855,2.855,0,0,1,.99,2.223,3.249,3.249,0,0,1-.97,2.394,3.367,3.367,0,0,1-2.483.972A3.442,3.442,0,0,1,760.246,133.054Zm-.26,4.726h5.393v23.039h-5.393Z" transform="translate(-579.39 -127.51)" fill="#716f6f"/>
  <path id="Path_431" data-name="Path 431" d="M894.038,189.951a11.08,11.08,0,0,1-4.445-4.207,12.447,12.447,0,0,1,0-12.188,11.164,11.164,0,0,1,4.423-4.185,13.492,13.492,0,0,1,6.45-1.511,12.437,12.437,0,0,1,5.976,1.379,8.974,8.974,0,0,1,3.863,3.972l-4.143,2.416a6.581,6.581,0,0,0-2.483-2.394,7.245,7.245,0,0,0-8.261,1.166,7.948,7.948,0,0,0-.022,10.484,7.28,7.28,0,0,0,8.283,1.166,6.6,6.6,0,0,0,2.483-2.394l4.143,2.416a9.35,9.35,0,0,1-3.9,3.989,12.156,12.156,0,0,1-5.934,1.4A13.51,13.51,0,0,1,894.038,189.951Z" transform="translate(-692.517 -157.85)" fill="#716f6f"/>
  <path id="Path_432" data-name="Path 432" d="M1028.518,181.358h-18.075a6.246,6.246,0,0,0,2.478,4.034,8.119,8.119,0,0,0,4.986,1.488,8.392,8.392,0,0,0,6.254-2.5l2.893,3.322a9.72,9.72,0,0,1-3.93,2.8,15.529,15.529,0,0,1-12.037-.558,10.869,10.869,0,0,1-4.465-4.207,11.892,11.892,0,0,1-1.573-6.105,12.046,12.046,0,0,1,1.531-6.063,10.91,10.91,0,0,1,4.249-4.207,12.422,12.422,0,0,1,6.128-1.511,12.109,12.109,0,0,1,6.018,1.488,10.556,10.556,0,0,1,4.143,4.185,12.673,12.673,0,0,1,1.488,6.237C1028.6,180.135,1028.577,180.668,1028.518,181.358Zm-15.941-7.658a6.461,6.461,0,0,0-2.181,4.076h13.076a6.3,6.3,0,0,0-6.517-5.609A6.527,6.527,0,0,0,1012.577,173.7Z" transform="translate(-780.531 -157.843)" fill="#716f6f"/>
</svg>
