<svg id="Jira_Logo" xmlns="http://www.w3.org/2000/svg" width="158" height="61.364" viewBox="0 0 158 61.364">
  <g id="Group_197" data-name="Group 197" transform="translate(48.78 14.807)">
    <path id="Path_362" data-name="Path 362" d="M254.311,1.756A1.109,1.109,0,0,0,253.253.98H242.9a1.109,1.109,0,0,0-1.058.776L228.772,43.2a1.11,1.11,0,0,0,1.058,1.444h7.13a1.11,1.11,0,0,0,1.064-.8l9-30.48a1.12,1.12,0,0,1,1.05-.761,1.078,1.078,0,0,1,1.03.792l4.175,14.454h-5.736a1.109,1.109,0,0,0-1.068.809l-1.609,5.722a1.11,1.11,0,0,0,1.068,1.41h9.679l2.514,8.07a1.11,1.11,0,0,0,1.06.78h7.133a1.11,1.11,0,0,0,1.058-1.444L254.311,1.756" transform="translate(-158.209 -0.98)" fill="#264970"/>
    <path id="Path_363" data-name="Path 363" d="M133.72,9.049h8.631c4.463,0,5.36,1.756,5.36,4.591v4.233c0,3.528-1.352,4.718-5.36,4.718H133.72V9.049ZM160.072,42.81l-9.484-13.68c4.083-1.694,6.153-5.244,6.153-10.553V13C156.742,4.686,152.4.98,142.671.98H125.8a1.11,1.11,0,0,0-1.11,1.109V43.532a1.11,1.11,0,0,0,1.11,1.11h6.811a1.11,1.11,0,0,0,1.11-1.11v-13h6.971l9.481,13.631a1.11,1.11,0,0,0,.911.476h8.147a1.11,1.11,0,0,0,.843-1.832Z" transform="translate(-86.321 -0.98)" fill="#264970"/>
    <path id="Path_364" data-name="Path 364" d="M80.189.98H73.377a1.11,1.11,0,0,0-1.11,1.109V43.532a1.11,1.11,0,0,0,1.11,1.11h6.812a1.11,1.11,0,0,0,1.11-1.11V2.089A1.11,1.11,0,0,0,80.189.98" transform="translate(-50.097 -0.98)" fill="#264970"/>
    <path id="Path_365" data-name="Path 365" d="M14.652.98H7.758A1.06,1.06,0,0,0,6.7,2.037V34.466a5.25,5.25,0,0,1-5.207,5.522,1.093,1.093,0,0,0-.794.457,1.055,1.055,0,0,0-.138.906L2.235,46.8c.137.446.618.733,1.4.733A11.986,11.986,0,0,0,15.709,35.415V2.037A1.057,1.057,0,0,0,14.652.98" transform="translate(-0.512 -0.98)" fill="#264970"/>
  </g>
  <g id="Group_198" data-name="Group 198">
    <path id="Path_366" data-name="Path 366" d="M22.273,12.281a3.837,3.837,0,1,0,3.833,3.837,3.831,3.831,0,0,0-3.833-3.837" transform="translate(-12.743 -8.78)" fill="#264970"/>
    <path id="Path_367" data-name="Path 367" d="M103.785,12.281a3.837,3.837,0,1,0,3.833,3.837,3.83,3.83,0,0,0-3.833-3.837" transform="translate(-69.07 -8.78)" fill="#264970"/>
    <path id="Path_368" data-name="Path 368" d="M63.028.951a3.837,3.837,0,1,0,3.833,3.837A3.831,3.831,0,0,0,63.028.951" transform="translate(-40.905 -0.951)" fill="#264970"/>
    <path id="Path_369" data-name="Path 369" d="M43.778,46.314a1.2,1.2,0,0,0-1.158-.167,59.189,59.189,0,0,1-7.637,2.307,1.5,1.5,0,0,0-1.051.916c-1.753,4.8-6.229,9.373-10.924,14.162a1.234,1.234,0,0,1-.882.415,1.215,1.215,0,0,1-.882-.415c-4.7-4.789-9.171-9.345-10.924-14.146a1.5,1.5,0,0,0-1.051-.916,59.271,59.271,0,0,1-7.642-2.33,1.208,1.208,0,0,0-.429-.079,1.184,1.184,0,0,0-.724.244,1.2,1.2,0,0,0-.466,1.061A25.218,25.218,0,0,0,4.828,59.351,88.09,88.09,0,0,0,14.37,70.2c6.219,6.343,12.093,12.334,12.608,19.28a1.2,1.2,0,0,0,1.2,1.112h7.306a1.2,1.2,0,0,0,1.2-1.261c-.23-4.644-1.978-9.3-5.343-14.218-.705-1.032-1.461-2.036-2.251-3.019a.872.872,0,0,1,.059-1.148l.732-.747a88.152,88.152,0,0,0,9.542-10.847,25.153,25.153,0,0,0,4.822-11.963,1.233,1.233,0,0,0-.466-1.074" transform="translate(0 -32.123)" fill="#264970"/>
    <path id="Path_370" data-name="Path 370" d="M31.191,140.853a1.112,1.112,0,0,0-.853-.365,1.2,1.2,0,0,0-.991.564c-3.073,4.676-4.66,9.09-4.88,13.525a1.206,1.206,0,0,0,1.2,1.265h7.294a1.211,1.211,0,0,0,1.2-1.117,16.218,16.218,0,0,1,2.036-6.532,1.693,1.693,0,0,0-.148-1.824,67.443,67.443,0,0,0-4.865-5.516" transform="translate(-16.906 -97.374)" fill="#264970"/>
    <path id="Path_371" data-name="Path 371" d="M59.99,58.159c2.29,0,3.618-.137,4.084-.137a1.115,1.115,0,0,1,1.105,1.111,1.193,1.193,0,0,1-.089.444,19.409,19.409,0,0,1-4.264,6.238,1.174,1.174,0,0,1-.842.334h0a1.173,1.173,0,0,1-.841-.334,19.394,19.394,0,0,1-4.264-6.238,1.185,1.185,0,0,1-.089-.444,1.115,1.115,0,0,1,1.106-1.111c.466,0,1.794.137,4.082.137h.015" transform="translate(-37.859 -40.388)" fill="#264970"/>
  </g>
</svg>
