<svg xmlns="http://www.w3.org/2000/svg" width="390.947" height="235.097" viewBox="0 0 390.947 235.097">
  <g id="Group_8" data-name="Group 8" transform="translate(1100.744 -1408.999)">
    <g id="Group_6" data-name="Group 6" transform="translate(-1100.744 1582.489)">
      <path id="Path_12" data-name="Path 12" d="M80.615,18.547a90.29,90.29,0,0,1,14.908-1.161c7.676,0,13.3,1.786,16.875,5,3.3,2.857,5.268,7.232,5.268,12.589,0,5.447-1.607,9.732-4.643,12.857-4.11,4.375-10.8,6.607-18.393,6.607a26.753,26.753,0,0,1-6.25-.536v24.1H80.615ZM88.38,47.565a26.05,26.05,0,0,0,6.429.625c9.375,0,15.087-4.554,15.087-12.857,0-7.947-5.622-11.786-14.194-11.786a32.6,32.6,0,0,0-7.322.625Z" transform="translate(-80.615 -17.386)" fill="#bd3323"/>
      <path id="Path_13" data-name="Path 13" d="M136.1,45.139c0,15.982-11.072,22.947-21.518,22.947-11.7,0-20.715-8.572-20.715-22.233,0-14.465,9.464-22.947,21.429-22.947,12.411,0,20.8,9.018,20.8,22.233m-34.286.446c0,9.464,5.447,16.607,13.125,16.607,7.5,0,13.125-7.057,13.125-16.786,0-7.322-3.661-16.607-12.947-16.607s-13.3,8.572-13.3,16.786" transform="translate(-54.42 -6.477)" fill="#bd3323"/>
      <path id="Path_14" data-name="Path 14" d="M116.523,23.236,122.234,45.2c1.25,4.822,2.408,9.286,3.217,13.75h.265c.982-4.375,2.411-9.018,3.839-13.661l7.054-22.054h6.61l6.694,21.608c1.607,5.179,2.857,9.732,3.839,14.107h.268a128.55,128.55,0,0,1,3.3-14.018l6.158-21.7h7.771L157.324,66.451h-7.143l-6.61-20.625a144.849,144.849,0,0,1-3.836-14.2h-.182a126.6,126.6,0,0,1-3.929,14.286l-6.961,20.536h-7.14L108.487,23.236Z" transform="translate(-25.533 -5.825)" fill="#bd3323"/>
      <path id="Path_15" data-name="Path 15" d="M137.46,46.924c.176,10.622,6.964,15,14.819,15a28.4,28.4,0,0,0,11.965-2.232l1.339,5.622a35,35,0,0,1-14.375,2.679c-13.3,0-21.25-8.747-21.25-21.783s7.679-23.3,20.268-23.3c14.107,0,17.857,12.411,17.857,20.357a29.641,29.641,0,0,1-.268,3.661ZM160.493,41.3c.089-5-2.051-12.768-10.893-12.768-7.947,0-11.429,7.322-12.054,12.768Z" transform="translate(16.897 -6.477)" fill="#bd3323"/>
      <path id="Path_16" data-name="Path 16" d="M145.311,37.371c0-5.089-.086-9.464-.354-13.482h6.872l.268,8.482h.357c1.967-5.8,6.7-9.464,11.965-9.464a8.483,8.483,0,0,1,2.232.268v7.411a11.8,11.8,0,0,0-2.676-.268c-5.539,0-9.464,4.2-10.539,10.089a22.119,22.119,0,0,0-.357,3.661V67.1h-7.768Z" transform="translate(46.54 -6.477)" fill="#bd3323"/>
      <path id="Path_17" data-name="Path 17" d="M153.939,18.547a90.291,90.291,0,0,1,14.908-1.161c7.676,0,13.3,1.786,16.875,5,3.3,2.857,5.268,7.232,5.268,12.589,0,5.447-1.607,9.732-4.643,12.857-4.11,4.375-10.8,6.607-18.393,6.607a26.752,26.752,0,0,1-6.25-.536v24.1h-7.765ZM161.7,47.565a26.049,26.049,0,0,0,6.429.625c9.375,0,15.087-4.554,15.087-12.857,0-7.947-5.622-11.786-14.194-11.786a32.6,32.6,0,0,0-7.322.625Z" transform="translate(64.291 -17.386)" fill="#bd3323"/>
      <path id="Path_18" data-name="Path 18" d="M209.428,45.139c0,15.982-11.072,22.947-21.518,22.947-11.7,0-20.715-8.572-20.715-22.233,0-14.465,9.467-22.947,21.429-22.947,12.411,0,20.8,9.018,20.8,22.233m-34.286.446c0,9.464,5.447,16.607,13.125,16.607,7.5,0,13.125-7.057,13.125-16.786,0-7.322-3.661-16.607-12.947-16.607s-13.3,8.572-13.3,16.786" transform="translate(90.488 -6.477)" fill="#bd3323"/>
      <path id="Path_19" data-name="Path 19" d="M193.113,22.417c.092,2.679-1.875,4.822-5,4.822a4.67,4.67,0,0,1-4.732-4.822,4.785,4.785,0,0,1,4.908-4.911,4.664,4.664,0,0,1,4.822,4.911m-8.75,12.143h7.86V77.775h-7.86Z" transform="translate(122.481 -17.149)" fill="#bd3323"/>
      <path id="Path_20" data-name="Path 20" d="M189.851,35.585c0-4.464-.086-8.125-.354-11.7h6.964l.443,7.143h.182a15.883,15.883,0,0,1,14.283-8.125c5.982,0,15.268,3.571,15.268,18.393V67.1H218.78V42.192c0-6.964-2.589-12.768-10-12.768a11.166,11.166,0,0,0-10.536,8.036,11.3,11.3,0,0,0-.533,3.661V67.1h-7.86Z" transform="translate(134.562 -6.477)" fill="#bd3323"/>
      <path id="Path_21" data-name="Path 21" d="M217.737,19.066V31.477h11.247v5.982H217.737v23.3c0,5.357,1.518,8.393,5.89,8.393a17.331,17.331,0,0,0,4.557-.539l.357,5.893a19.246,19.246,0,0,1-6.964,1.071c-3.661,0-6.61-1.158-8.485-3.3-2.232-2.318-3.033-6.158-3.033-11.247V37.459h-6.7V31.477h6.7V21.12Z" transform="translate(161.963 -14.066)" fill="#bd3323"/>
    </g>
    <rect id="Rectangle_9" data-name="Rectangle 9" width="134.737" height="104.655" transform="translate(-981.133 1427.037)" fill="#fff"/>
    <path id="Subtraction_3" data-name="Subtraction 3" d="M86.442,143.724h0L0,128.723V15L86.442,0V15.611h59.764a4.969,4.969,0,0,1,4.963,4.963v99.263a4.968,4.968,0,0,1-4.963,4.961H86.442v18.924Zm0-36.363v12.477H146.2l.008-99.263H86.442V43.352a20.461,20.461,0,0,1,15.579-7.2V56.626h20.47A20.467,20.467,0,0,1,86.442,69.9V85.991h46.6v5.791h-46.6v9.788h46.6v5.791h-46.6Zm-47.9-59.38c-1.8,0-3.642.014-5.42.028h-.006c-1.782.014-3.625.028-5.442.028V96.365h8.659v-16c1.037-.086,2.059-.132,3.047-.176a31.873,31.873,0,0,0,6.088-.656,14.042,14.042,0,0,0,6.974-3.9,14.922,14.922,0,0,0,3.67-7.067,25.259,25.259,0,0,0,.673-9.315,14.668,14.668,0,0,0-4.119-8.392,8.652,8.652,0,0,0-5.045-2.7C45,48.039,42.114,47.981,38.542,47.981Zm1.44,23.226h0c-.816,0-1.644-.072-2.52-.147-.29-.025-.59-.051-.888-.074V56.81a22.07,22.07,0,0,1,3.4-.349A6.367,6.367,0,0,1,45.1,58.619a7.519,7.519,0,0,1,1.477,4.616,9.684,9.684,0,0,1-1.088,5.085A5.7,5.7,0,0,1,39.982,71.207Z" transform="translate(-993.411 1409.594)" fill="#bd3323" stroke="rgba(0,0,0,0)" stroke-width="1"/>
  </g>
</svg>
