<svg id="sharepoint-1" xmlns="http://www.w3.org/2000/svg" width="229.659" height="45.829" viewBox="0 0 229.659 45.829">
  <path id="sharepoint-1-2" data-name="sharepoint-1" d="M0,4.786,26.75,0q.014,22.914,0,45.829C17.839,44.249,8.929,42.641,0,41.061ZM8.91,15.129A6.189,6.189,0,0,0,7.679,19.86a5.735,5.735,0,0,0,2.048,3.656,28.944,28.944,0,0,1,3.151,2.352,2.183,2.183,0,0,1,.165,2.783,2.3,2.3,0,0,1-2.2.56A5.4,5.4,0,0,1,7.661,27.3L7.67,31.26a7.062,7.062,0,0,0,4.336,1.258,5.255,5.255,0,0,0,3.041-.928,4.949,4.949,0,0,0,1.883-3.426,6.022,6.022,0,0,0-.992-4.474,11.034,11.034,0,0,0-3.1-2.508A5.1,5.1,0,0,1,11.2,19.8a2.223,2.223,0,0,1,.248-2.682,2.776,2.776,0,0,1,2.287-.533,5.133,5.133,0,0,1,2.6,1.121V13.77a8.667,8.667,0,0,0-3.932-.459A5.42,5.42,0,0,0,8.91,15.129Zm20.43-7.45a4.391,4.391,0,0,1,7.422,1.984,4.819,4.819,0,0,1,.083,2.048,12.032,12.032,0,0,1,6.55,6.752,4.35,4.35,0,0,1,3.7,1.029,4.674,4.674,0,0,1,1.029,5.567,4.431,4.431,0,0,1-4.74,2.342,11.952,11.952,0,0,1-6.522,6.733A4.73,4.73,0,0,1,35.6,38.269a4.341,4.341,0,0,1-4.418,1.056,4.273,4.273,0,0,1-1.819-1.176V31.839A4.4,4.4,0,0,1,32.7,30.452a4.507,4.507,0,0,1,3.086,1.461,9.637,9.637,0,0,0,5.438-5.631,4.867,4.867,0,0,1-1.387-2.838,4.738,4.738,0,0,1,1.387-3.867,9.651,9.651,0,0,0-5.466-5.659A4.392,4.392,0,0,1,32.923,15.4a4.459,4.459,0,0,1-3.583-1.36Zm49.485-.018H82v12.7a7.409,7.409,0,0,1,4.391-3.5,8.285,8.285,0,0,1,5.144.3,5.444,5.444,0,0,1,2.949,3.289,12.85,12.85,0,0,1,.625,4.336V36.707h-3.16V25.822a10.235,10.235,0,0,0-.707-4.235,3.743,3.743,0,0,0-2.251-2.039,5.188,5.188,0,0,0-4.639.744,6.43,6.43,0,0,0-2.379,4.988V36.689h-3.16q.014-14.5.009-29.028Zm113.061.45a2.077,2.077,0,0,1,2.728,1.644,2.091,2.091,0,0,1-4.079.873A2.129,2.129,0,0,1,191.886,8.111ZM64.192,9.489A12.354,12.354,0,0,1,69.639,8.8a10.052,10.052,0,0,1,4.051.928v3.656a9.079,9.079,0,0,0-6.145-1.672A5.222,5.222,0,0,0,63.732,13.5a4.538,4.538,0,0,0-.432,4.29c.689,1.479,2.2,2.3,3.527,3.132,2.159,1.268,4.446,2.416,6.191,4.262a6.454,6.454,0,0,1,1.828,4.694,6.592,6.592,0,0,1-2.039,4.988,9.538,9.538,0,0,1-6.155,2.3,14.089,14.089,0,0,1-5.264-.735,7.084,7.084,0,0,1-1.865-.827l.009-3.858a10.832,10.832,0,0,0,5.4,2.388,8.486,8.486,0,0,0,4.382-.441,3.335,3.335,0,0,0,1.92-2.1,4.575,4.575,0,0,0-.652-4.079,11.355,11.355,0,0,0-2.655-2.2c-1.663-1.112-3.491-1.957-5.071-3.188a8.134,8.134,0,0,1-2.793-3.316,7.564,7.564,0,0,1-.156-4.951,7.156,7.156,0,0,1,4.281-4.373Zm86.11-.266h5.19a21.946,21.946,0,0,1,5.9.423,7.633,7.633,0,0,1,4.63,3.289,9.314,9.314,0,0,1,.965,6.219,8.073,8.073,0,0,1-3.252,5.227,9.645,9.645,0,0,1-4.207,1.727,43.369,43.369,0,0,1-5.989.184V36.68h-3.243c.009-9.131.028-18.289.009-27.457m3.243,2.94V23.4c2.14-.064,4.354.211,6.439-.441a5.272,5.272,0,0,0,3.022-2.315,6.783,6.783,0,0,0,.625-4.29,4.551,4.551,0,0,0-1.7-2.976,7.528,7.528,0,0,0-4.336-1.213h-4.051Zm67.995.119c1.056-.331,2.1-.68,3.16-1.02.009,1.938,0,3.867,0,5.806h4.942v2.719h-4.924V31.177a4.385,4.385,0,0,0,.551,2.26,2.34,2.34,0,0,0,1.856.965,3.692,3.692,0,0,0,2.535-.615v2.728a6.949,6.949,0,0,1-3.711.588,4.647,4.647,0,0,1-2.976-1.258,5.793,5.793,0,0,1-1.424-3.895V19.768h-3.4v-2.7h3.4c-.009-1.6-.028-3.188-.009-4.786ZM103.508,17.1a11,11,0,0,1,6.531-.028,5.349,5.349,0,0,1,3.243,3.243,13.677,13.677,0,0,1,.56,5.107V36.689h-3.16V33.575a6.842,6.842,0,0,1-3.38,3.1,8.133,8.133,0,0,1-5.034.184,5.3,5.3,0,0,1-3.739-3.739,7.1,7.1,0,0,1,.331-4.382,5.311,5.311,0,0,1,2.3-2.535,10.045,10.045,0,0,1,3.628-1.148c1.975-.276,3.932-.551,5.907-.836a5.883,5.883,0,0,0-1.075-3.766,3.7,3.7,0,0,0-2.995-1.167,9.79,9.79,0,0,0-6.366,2.388V18.39a12.979,12.979,0,0,1,3.252-1.286m1.608,10.49a4.629,4.629,0,0,0-3.022,1.525,4.132,4.132,0,0,0-.441,2.82,3.151,3.151,0,0,0,2.278,2.315,5.389,5.389,0,0,0,3.748-.331,5.538,5.538,0,0,0,2.783-3.527,15.378,15.378,0,0,0,.211-3.619C108.827,27.08,106.971,27.3,105.115,27.595Zm27.852-9.168a8.314,8.314,0,0,1,5.291-1.819,7.863,7.863,0,0,1,4.97,1.488A8.028,8.028,0,0,1,146,22.542a20.006,20.006,0,0,1,.4,5.135c-4.611,0-9.241-.009-13.862,0a8.227,8.227,0,0,0,1.268,4.428,5.564,5.564,0,0,0,3.922,2.278,9.615,9.615,0,0,0,7.3-2.094c-.009.992,0,2,0,2.995a11.055,11.055,0,0,1-6.237,1.892A9.531,9.531,0,0,1,133.445,36a8.164,8.164,0,0,1-3.408-4.271,14.677,14.677,0,0,1-.707-5.916,10.354,10.354,0,0,1,3.638-7.386m2.1,1.975A7.078,7.078,0,0,0,132.6,25h10.546a6.528,6.528,0,0,0-1.3-4.2,4.371,4.371,0,0,0-3.436-1.488,4.96,4.96,0,0,0-3.335,1.084Zm41.107-3.711a10.718,10.718,0,0,1,6.844,1.231,8.983,8.983,0,0,1,3.922,6.191,13.98,13.98,0,0,1-.505,7.119,8.941,8.941,0,0,1-5.374,5.374,11.746,11.746,0,0,1-6.614.22,8.566,8.566,0,0,1-5.383-4.3,12.273,12.273,0,0,1-1.148-6.963,10.141,10.141,0,0,1,2.416-5.943,8.953,8.953,0,0,1,5.842-2.93m.3,2.691a5.822,5.822,0,0,0-4.088,2.535,9.934,9.934,0,0,0-1.258,6.256,6.91,6.91,0,0,0,2.691,5.19,6.793,6.793,0,0,0,4.556,1.075,5.565,5.565,0,0,0,3.472-1.479,6.59,6.59,0,0,0,1.819-3.555,14.116,14.116,0,0,0,.092-4.483,6.522,6.522,0,0,0-2.682-4.7,6.908,6.908,0,0,0-4.6-.836ZM204.2,18.317a6.854,6.854,0,0,1,3.858-1.69,7.278,7.278,0,0,1,4.547.836,6.531,6.531,0,0,1,2.774,4.244,23.409,23.409,0,0,1,.3,5.126v9.838h-3.16V25.4a8.752,8.752,0,0,0-.919-4.207,3.649,3.649,0,0,0-2.434-1.773,5.312,5.312,0,0,0-3.564.423,6.074,6.074,0,0,0-3.059,5.291c-.009,3.858,0,7.7,0,11.556h-3.16V17.049h3.16v3.307a9.755,9.755,0,0,1,1.653-2.039ZM124.287,17.6a5.339,5.339,0,0,1,4.666-.625v3.316a4.393,4.393,0,0,0-3.307-.551,4.538,4.538,0,0,0-2.9,2.572,10.444,10.444,0,0,0-.873,4.942v9.434h-3.16V17.068h3.178v4.106a6.794,6.794,0,0,1,2.4-3.573Zm66.654-.533h3.178V36.7h-3.16Z" fill="#0072c6"/>
</svg>
