<?xml version="1.0" encoding="utf-8"?>
<!-- Generator: Adobe Illustrator 25.2.1, SVG Export Plug-In . SVG Version: 6.00 Build 0)  -->
<svg version="1.1" id="Layer_1" xmlns="http://www.w3.org/2000/svg" xmlns:xlink="http://www.w3.org/1999/xlink" x="0px" y="0px"
	 viewBox="0 0 500 500" style="enable-background:new 0 0 500 500;" xml:space="preserve">
<style type="text/css">
	.st0{fill:#FBB040;}
</style>
<g>
	<path class="st0" d="M123,294.6L123,294.6c0,0-0.3,15,0,29.5v122.7h124.5l-72.7-152.2H123z"/>
	<path class="st0" d="M198.9,112.5H123v0c0,0-0.3,14.9,0,29.5v32V235h74c44.4,0,72-19,72-61.2C269,130.7,238.5,112.5,198.9,112.5z"
		/>
	<g>
		<path class="st0" d="M219.6,53.2c75,4.1,125.3,48.8,125.3,119.1c0,63.9-36.9,102.1-89.5,116.1l82.5,158.4h109.1V53.2H219.6z"/>
		<path d="M344.8,172.3c0-70.3-50.2-115.1-125.3-119.1H53.2v393.7h70.7V324.1c-0.3-14.5,0-29.4,0-29.4v0h51.7l72.7,152.2h89.4
			l-82.5-158.4C307.9,274.4,344.8,236.2,344.8,172.3z M197.9,235h-74v-61.1v-32c-0.3-14.5,0-29.5,0-29.5v0h75.9
			c39.6,0,70.1,18.2,70.1,61.4C269.9,216,242.3,235,197.9,235z"/>
	</g>
</g>
</svg>
