<?xml version="1.0" encoding="utf-8"?><!-- Uploaded to: SVG Repo, www.svgrepo.com, Generator: SVG Repo Mixer Tools -->
<svg fill="#000000" width="800px" height="800px" viewBox="0 0 16 16" id="world-16px" xmlns="http://www.w3.org/2000/svg">
  <path id="Path_195" data-name="Path 195" d="M30,0a7.957,7.957,0,0,0-2.584.436.523.523,0,0,0-.1.037A7.978,7.978,0,1,0,30,0ZM23,8a7,7,0,0,1,4.473-6.52l1.344,1.106A.5.5,0,0,1,29,2.972V4.356a1.485,1.485,0,0,0-1.244-.135L26.025,4.8A1.5,1.5,0,0,0,25,6.221v.5a1.5,1.5,0,0,0,1.137,1.455L28,8.641a.5.5,0,0,1,.3.762l-1.045,1.568A1.493,1.493,0,0,0,27,11.8v2.512A7,7,0,0,1,23,8Zm4.961,6.695A.506.506,0,0,0,28,14.5V11.8a.5.5,0,0,1,.084-.278l1.045-1.567a1.5,1.5,0,0,0-.885-2.287L26.379,7.2A.5.5,0,0,1,26,6.719v-.5a.5.5,0,0,1,.342-.475l1.73-.576a.5.5,0,0,1,.512.121l.562.563A.5.5,0,0,0,30,5.5V2.972a1.5,1.5,0,0,0-.547-1.158l-.823-.677A6.978,6.978,0,0,1,35.84,4.15l-2.7.676A1.5,1.5,0,0,0,32,6.281v.6a1.491,1.491,0,0,0,.829,1.342l.73.364a.5.5,0,0,1,.261.569l-.667,2.672a1.5,1.5,0,0,0,.394,1.425l.47.47a6.963,6.963,0,0,1-6.056.971Zm6.833-1.608-.54-.54a.5.5,0,0,1-.131-.475L34.791,9.4a1.492,1.492,0,0,0-.785-1.705l-.73-.365A.5.5,0,0,1,33,6.882v-.6a.5.5,0,0,1,.379-.486l2.962-.74a6.948,6.948,0,0,1-1.547,8.032Z" transform="translate(-22)"/>
</svg>