<svg xmlns="http://www.w3.org/2000/svg" width="36" height="36" viewBox="0 0 36 36">
  <g id="auto_stories_black_24dp" transform="translate(0.124)">
    <g id="Group_155" data-name="Group 155">
      <rect id="Rectangle_112" data-name="Rectangle 112" width="36" height="36" transform="translate(-0.124)" fill="none"/>
    </g>
    <g id="Group_156" data-name="Group 156" transform="translate(1.502 0.751)">
      <path id="Path_281" data-name="Path 281" d="M33.244,7.559a15.875,15.875,0,0,0-2.208-.916V24.709a15.451,15.451,0,0,0-5.256-.931,15.915,15.915,0,0,0-8.26,2.373V7.979A16.411,16.411,0,0,0,1.8,7.559,1.461,1.461,0,0,0,1,8.88V27.022a1.483,1.483,0,0,0,1.5,1.487,1.6,1.6,0,0,0,.721-.18A13.056,13.056,0,0,1,9.26,26.782a13.583,13.583,0,0,1,8.26,3,13.583,13.583,0,0,1,8.26-3,12.888,12.888,0,0,1,6.037,1.562,1.6,1.6,0,0,0,.721.18,1.493,1.493,0,0,0,1.5-1.487V8.88A1.461,1.461,0,0,0,33.244,7.559ZM14.516,24.709A15.3,15.3,0,0,0,4,24.709V9.826a13.4,13.4,0,0,1,10.513.015ZM28.033.5,20.524,8.009V22.276l7.509-6.758Z" transform="translate(-1 -0.5)"/>
    </g>
  </g>
</svg>
