<svg id="brush_black_24dp" xmlns="http://www.w3.org/2000/svg" width="36.044" height="36.044" viewBox="0 0 36.044 36.044">
  <path id="Path_284" data-name="Path 284" d="M0,0H36.044V36.044H0Z" fill="none"/>
  <path id="Path_285" data-name="Path 285" d="M9.509,22.524a1.506,1.506,0,0,1,1.5,1.5,3.012,3.012,0,0,1-3,3,4.243,4.243,0,0,1-.751-.075,5.927,5.927,0,0,0,.751-2.929,1.506,1.506,0,0,1,1.5-1.5M27.035,3a1.538,1.538,0,0,0-1.066.436L12.513,16.892l4.13,4.13L30.1,7.566a1.5,1.5,0,0,0,0-2.118L28.087,3.436A1.466,1.466,0,0,0,27.035,3ZM9.509,19.52A4.5,4.5,0,0,0,5,24.025a3.048,3.048,0,0,1-3,3,7.77,7.77,0,0,0,6.007,3,6.006,6.006,0,0,0,6.007-6.007A4.5,4.5,0,0,0,9.509,19.52Z" transform="translate(1.004 1.505)" fill="#000"/>
</svg>
