<svg id="savings_black_24dp" xmlns="http://www.w3.org/2000/svg" width="36" height="36" viewBox="0 0 36 36">
  <rect id="Rectangle_210" data-name="Rectangle 210" width="36" height="36" fill="none"/>
  <g id="Group_194" data-name="Group 194" transform="translate(3 3)">
    <path id="Path_338" data-name="Path 338" d="M21.5,14A1.5,1.5,0,1,1,23,15.5,1.5,1.5,0,0,1,21.5,14ZM11,12.5h7.5v-3H11Zm21-2.25V20.7l-4.23,1.41L25.25,30.5H17v-3H14v3H5.75S2,17.81,2,13.25A8.245,8.245,0,0,1,10.25,5h7.5a7.493,7.493,0,0,1,6-3A2.247,2.247,0,0,1,26,4.25a2.1,2.1,0,0,1-.18.87,7.251,7.251,0,0,0-.48,1.725l3.4,3.4Zm-3,3H27.5L22.25,8a10.819,10.819,0,0,1,.39-2.865A4.524,4.524,0,0,0,19.505,8H10.25A5.256,5.256,0,0,0,5,13.25c0,2.82,1.83,9.975,3.015,14.25H11v-3h9v3h3.015l2.325-7.725L29,18.545Z" transform="translate(-2 -2)" fill="#f7b80c"/>
  </g>
</svg>
