<svg width="2898" height="435" viewBox="0 0 2898 435" fill="none" xmlns="http://www.w3.org/2000/svg">
<g style="mix-blend-mode:multiply">
<path d="M933.449 0H704L884.549 217.5L704 435H933.45L1114 217.5L933.449 0Z" fill="#F7B80C"/>
<path d="M1281.45 0H1052L1232.55 217.5L1052 435H1281.45L1462 217.5L1281.45 0Z" fill="#F7B80C"/>
<path d="M1281.45 0H1052L1232.55 217.5L1052 435H1281.45L1462 217.5L1281.45 0Z" fill="#F7B80C"/>
<path d="M1631.45 0H1402L1582.55 217.5L1402 435H1631.45L1812 217.5L1631.45 0Z" fill="#F7B80C"/>
<path d="M1982.45 0H1753L1933.55 217.5L1753 435H1982.45L2163 217.5L1982.45 0Z" fill="#F7B80C"/>
<path d="M2333.45 0H2104L2284.55 217.5L2104 435H2333.45L2514 217.5L2333.45 0Z" fill="#F7B80C"/>
<path d="M229.449 0H0L180.549 217.5L0 435H229.45L410 217.5L229.449 0Z" fill="#F7B80C"/>
<path d="M580.449 0H351L531.549 217.5L351 435H580.45L761 217.5L580.449 0Z" fill="#F7B80C"/>
<path d="M2717.45 0H2488L2668.55 217.5L2488 435H2717.45L2898 217.5L2717.45 0Z" fill="#F7B80C"/>
</g>
</svg>
