<?xml version="1.0" encoding="utf-8"?>
<!-- Generator: Adobe Illustrator 25.2.1, SVG Export Plug-In . SVG Version: 6.00 Build 0)  -->
<svg version="1.1" id="Layer_1" xmlns="http://www.w3.org/2000/svg" xmlns:xlink="http://www.w3.org/1999/xlink" x="0px" y="0px"
     viewBox="0 0 1920 520" style="enable-background:new 0 0 1920 520;" xml:space="preserve">
<style type="text/css">
	.st0{fill:#FBB040;}
</style>
    <g>
	<path d="M581.2,323.8V201.7h-41.7v91c0,37.1-10.1,50.7-35.2,50.7c-23.3,0-29.6-17.5-29.6-37.7V201.7h-36h0l-19,0
		c7.9,0,13.4,5.9,13.4,11.6v100.9c0,44.7,24.2,63.7,57.3,63.7c23.7,0,39.4-8,49-25.9c0.2,7.6,0.6,17.3,1.2,21.9h40.7
		C581.3,360.3,581.2,340.5,581.2,323.8z"/>
        <path d="M706.6,197.8c-31.2,0-45.2,15.9-51.4,28.1c-0.1-5.4-0.2-24.1-0.2-24.1H619l0,0l-19,0c7.6,0,13,5.5,13.3,11
		c0.1,10.3,0.1,21.6,0.1,32.4V374h41.7v-94.4c0-31.8,12.1-47.6,36.5-47.6c22.8,0,30.5,15.2,30.5,36.8V374h41.7V264
		C763.8,219.9,740.4,197.8,706.6,197.8z"/>
        <g>
		<path class="st0" d="M1446.9,230.4c20.7,0,29.7,11.6,33.1,26.8h40.8c-1.4-20.4-17.9-60-73.1-60c-52.1,0-81.9,41.1-81.9,91.3
			c0,52.9,28.2,89,79.7,89c48.8,0,68.9-29.7,75.3-58.7h-41.1c-5.2,15.5-15.2,25.8-33.4,25.8c-23.9,0-38.2-20-38.2-57.5
			C1408.2,251.9,1422.2,230.4,1446.9,230.4z"/>
            <path class="st0" d="M1077.1,197.4c-53.8,0-84.9,38.2-84.9,90.6c0,51.5,30.7,89.7,82.8,89.7c53.9,0,84.2-39.2,84.2-90.5
			C1159.1,233.2,1126.8,197.4,1077.1,197.4z M1076.1,344.5c-25.7,0-41.5-22.3-41.5-57c0-37.4,15.3-57,40.8-57
			c26.6,0,41.3,20.3,41.3,57.2C1116.7,322.7,1102.2,344.5,1076.1,344.5z"/>
            <path class="st0" d="M1616.9,266.5c-29.2-6.9-35.1-11.8-35.1-21.8c0-8.9,5.8-17.5,24.4-17.5c23.8,0,29.4,13.2,31.3,21.2h39.8
			c-1.7-23.6-19.6-51.1-69.2-51.1c-49.4,0-67.3,25.9-67.3,50.9c0,24,9.5,40.6,63.3,53.8c27.4,6.7,35,12.1,35,24.8
			c0,12.2-7.6,20-27.8,20c-19.7,0-31.8-8.8-35.8-24.3h-41c4,30.6,25.7,55,75.4,55c49.3,0,71.7-24.6,71.7-53.7
			C1681.5,298.5,1672.6,279.6,1616.9,266.5z"/>
            <path class="st0" d="M1290.8,201.7c7.9,0,13.4,5.9,13.4,11.6V374h41.7V201.7h-41.7H1290.8z"/>
            <path d="M1345.8,153l0-6.3h-41.5v47.8c0,0,0,0,0.1,0C1327.2,194.4,1345.8,175.9,1345.8,153z"/>
            <path class="st0" d="M1270.5,233.4v-32h-35.2v0h-0.2v-40.8h-41.5v40.9h-27.6v32h27.6v96.4c0,29.6,11.4,46.2,42.7,46.2
			c9.2,0,21.2-0.2,29.9-3.3v-29.3c-3.9,0.7-9.1,0.8-12.3,0.8c-14.7,0-18.7-6.3-18.7-20.6v-90.3H1270.5z"/>
	</g>
        <path d="M412.1,212.4c0-43.4-32.5-70.3-80.4-70.3h-93.2c0,0-0.2,8.7,0,17.2v214.6h43.6v-72.2c-0.2-8.5,0-17.3,0-17.3v0h30.4
		l42.8,89.5h52.6l-48.5-93.2C390.4,272.4,412.1,249.9,412.1,212.4z M325.7,249.2h-43.5v-35.9v-18.8c-0.2-8.5,0-17.3,0-17.3v0h44.6
		c23.3,0,41.2,10.7,41.2,36.1C368,238.1,351.8,249.2,325.7,249.2z"/>
        <path class="st0" d="M935.4,251.2c16.4-6.8,30.8-23.9,30.8-50.4c0-30.8-21.8-58.8-75.4-58.8h-97.1c0,0,0,9,0,17.6c0,0,0,0,0,0
		v214.3h100.1c47.5,0,79.4-27.8,79.4-68.9C973.2,273.3,951.3,256.9,935.4,251.2z M836.3,176.2h8.5l0,0l0,0l0,0h42.8
		c22,0,35.5,10.8,35.5,29c0,18.5-11,30-38.1,30h-48.6v-23.4l-0.1-18.1C836.3,185.1,836.3,176.2,836.3,176.2L836.3,176.2z
		 M885.8,339.7h-49.4v-52.8c0,0,0,0,0,0c0-8.6,0-17.6,0-17.6v0h47.1c31.5,0,45,13.6,45,34.5C928.6,327.6,913.6,339.7,885.8,339.7z"
        />
</g>
</svg>
