<svg width="32" height="32" viewBox="0 0 32 32" fill="none" xmlns="http://www.w3.org/2000/svg">
<g clip-path="url(#clip0_1591_841)">
<path d="M27.9998 13.3333C26.6931 10.2 23.5998 8 19.9998 8H11.9998C8.3998 8 5.30646 10.2 3.9998 13.3333C2.53313 13.3333 1.33313 14.5333 1.33313 16V17.3333C1.33313 18.8 2.53313 20 3.9998 20C5.30646 23.1333 8.3998 25.3333 11.9998 25.3333H13.3331V28.6667C13.3331 28.6667 21.3331 26 23.9998 24.6667C25.8798 23.7333 27.3998 22.2667 28.1598 19.9867C29.5598 19.9067 30.6665 18.76 30.6665 17.3333V16C30.6665 14.5333 29.4665 13.3333 27.9998 13.3333ZM19.9998 22.6667H11.9998C8.69313 22.6667 5.9998 19.9733 5.9998 16.6667C5.9998 13.36 8.69313 10.6667 11.9998 10.6667H19.9998C23.3065 10.6667 25.9998 13.36 25.9998 16.6667C25.9998 19.9733 23.3065 22.6667 19.9998 22.6667Z" fill="#FF6900"/>
<path d="M15.9998 6C17.1044 6 17.9998 5.10457 17.9998 4C17.9998 2.89543 17.1044 2 15.9998 2C14.8952 2 13.9998 2.89543 13.9998 4C13.9998 5.10457 14.8952 6 15.9998 6Z" fill="#FF6900"/>
<path d="M11.9998 15.3333C11.6265 15.3333 11.3065 15.4666 11.0532 15.72C10.7998 15.9733 10.6665 16.2933 10.6665 16.6666C10.6665 17.04 10.7998 17.36 11.0532 17.6133C11.3065 17.8666 11.6265 18 11.9998 18C12.3732 18 12.6932 17.8666 12.9465 17.6133C13.1998 17.36 13.3332 17.04 13.3332 16.6666C13.3332 16.2933 13.1998 15.9733 12.9465 15.72C12.6932 15.4666 12.3732 15.3333 11.9998 15.3333Z" fill="#FF6900"/>
<path d="M19.9998 15.3333C19.6265 15.3333 19.3065 15.4666 19.0532 15.72C18.7998 15.9733 18.6665 16.2933 18.6665 16.6666C18.6665 17.04 18.7998 17.36 19.0532 17.6133C19.3065 17.8666 19.6265 18 19.9998 18C20.3732 18 20.6932 17.8666 20.9465 17.6133C21.1998 17.36 21.3332 17.04 21.3332 16.6666C21.3332 16.2933 21.1998 15.9733 20.9465 15.72C20.6932 15.4666 20.3732 15.3333 19.9998 15.3333Z" fill="#FF6900"/>
</g>
<defs>
<clipPath id="clip0_1591_841">
<rect width="32" height="32" fill="white"/>
</clipPath>
</defs>
</svg>
