<svg width="25" height="25" viewBox="0 0 25 25" fill="none" xmlns="http://www.w3.org/2000/svg">
<path d="M18.762 9.10195H17.7437V7.07316C17.7702 5.75413 17.2487 4.47896 16.2936 3.52774C15.3385 2.57652 14.0281 2.02704 12.65 2C11.2719 2.02704 9.96146 2.57652 9.00638 3.52774C8.05131 4.47896 7.52975 5.75413 7.55628 7.07316V9.10195H6.53802C5.98813 9.11393 5.46544 9.33337 5.08379 9.71247C4.70213 10.0916 4.49241 10.5997 4.50029 11.1261V21.2712C4.49111 21.7984 4.70025 22.3077 5.08204 22.6878C5.46384 23.0679 5.98727 23.288 6.53802 23.3H18.762C19.3127 23.288 19.8362 23.0679 20.218 22.6878C20.5998 22.3077 20.8089 21.7984 20.7997 21.2712V11.1261C20.8076 10.5997 20.5979 10.0916 20.2162 9.71247C19.8346 9.33337 19.3119 9.11393 18.762 9.10195ZM9.59401 7.07316C9.59401 6.29739 9.91598 5.5534 10.4891 5.00485C11.0622 4.45631 11.8395 4.14813 12.65 4.14813C13.4605 4.14813 14.2378 4.45631 14.8109 5.00485C15.384 5.5534 15.706 6.29739 15.706 7.07316V9.10195H9.59401V7.07316ZM18.762 21.2771H6.53802V11.1261H18.762V21.2771ZM12.65 18.235C13.0729 18.2511 13.4912 18.1458 13.851 17.9327C14.2109 17.7195 14.496 17.4082 14.6696 17.0388C14.8433 16.6693 14.8975 16.2586 14.8254 15.8595C14.7533 15.4603 14.5581 15.0909 14.265 14.7987C13.9719 14.5065 13.5941 14.3049 13.1803 14.2197C12.7666 14.1346 12.3356 14.1698 11.943 14.3209C11.5503 14.472 11.2137 14.732 10.9766 15.0675C10.7395 15.4031 10.6126 15.7988 10.6123 16.2039C10.6031 16.7311 10.8122 17.2404 11.194 17.6205C11.5758 18.0006 12.0992 18.2207 12.65 18.2327V18.235Z" fill="#666666"/>
</svg>
