<svg width="40" height="40" viewBox="0 0 40 40" fill="none" xmlns="http://www.w3.org/2000/svg">
<g clip-path="url(#clip0_1099_11561)">
<path d="M15 22.5C16.38 22.5 17.5 23.62 17.5 25C17.5 26.38 16.38 27.5 15 27.5C13.62 27.5 12.5 26.38 12.5 25C12.5 23.62 13.62 22.5 15 22.5ZM15 21C12.79 21 11 22.79 11 25C11 27.21 12.79 29 15 29C17.21 29 19 27.21 19 25C19 22.79 17.21 21 15 21Z" fill="black" fill-opacity="0.56"/>
<path d="M27 23V27H23V23H27ZM28.5 21.5H21.5V28.5H28.5V21.5Z" fill="black" fill-opacity="0.56"/>
<path d="M17 13V17H13V13H17ZM18.5 11.5H11.5V18.5H18.5V11.5Z" fill="black" fill-opacity="0.56"/>
<path d="M28.5 14.25H25.75V11.5H24.25V14.25H21.5V15.75H24.25V18.5H25.75V15.75H28.5V14.25Z" fill="black" fill-opacity="0.56"/>
</g>
<defs>
<clipPath id="clip0_1099_11561">
<rect width="24" height="24" fill="white" transform="translate(8 8)"/>
</clipPath>
</defs>
</svg>
