<svg width="36" height="36" viewBox="0 0 36 36" fill="none" xmlns="http://www.w3.org/2000/svg">
<g clip-path="url(#clip0_1_2)">
<path d="M30.47 13.099V10.099C30.4668 9.30432 30.1498 8.54309 29.5878 7.98117C29.0259 7.41924 28.2647 7.10216 27.47 7.099H22.96C22.96 5.90407 22.4853 4.75807 21.6404 3.91313C20.7954 3.06818 19.6494 2.5935 18.4545 2.5935C17.2596 2.5935 16.1136 3.06818 15.2686 3.91313C14.4237 4.75807 13.949 5.90407 13.949 7.099H9.44401C8.64933 7.10216 7.8881 7.41924 7.32618 7.98117C6.76425 8.54309 6.44717 9.30432 6.44401 10.099V13.099C5.24907 13.099 4.10308 13.5737 3.25814 14.4186C2.41319 15.2636 1.93851 16.4096 1.93851 17.6045C1.93851 18.7994 2.41319 19.9454 3.25814 20.7904C4.10308 21.6353 5.24907 22.11 6.44401 22.11V28.117C6.44717 28.9117 6.76425 29.6729 7.32618 30.2348C7.8881 30.7968 8.64933 31.1138 9.44401 31.117H27.466C28.2607 31.1138 29.0219 30.7968 29.5838 30.2348C30.1458 29.6729 30.4628 28.9117 30.466 28.117V22.11C31.6609 22.11 32.8069 21.6353 33.6519 20.7904C34.4968 19.9454 34.9715 18.7994 34.9715 17.6045C34.9715 16.4096 34.4968 15.2636 33.6519 14.4186C32.8069 13.5737 31.6609 13.099 30.466 13.099H30.47ZM27.47 28.117H9.44401V10.095H27.466L27.47 28.117ZM13.95 19.106C13.5044 19.106 13.0688 18.9739 12.6983 18.7263C12.3278 18.4787 12.039 18.1269 11.8685 17.7152C11.698 17.3035 11.6534 16.8505 11.7403 16.4135C11.8272 15.9764 12.0418 15.575 12.3569 15.2599C12.672 14.9448 13.0734 14.7302 13.5105 14.6433C13.9475 14.5564 14.4005 14.601 14.8122 14.7715C15.2239 14.942 15.5757 15.2308 15.8233 15.6013C16.0709 15.9718 16.203 16.4074 16.203 16.853C16.2034 17.149 16.1454 17.4421 16.0323 17.7157C15.9192 17.9892 15.7533 18.2377 15.544 18.447C15.3347 18.6563 15.0862 18.8222 14.8127 18.9353C14.5391 19.0484 14.246 19.1064 13.95 19.106ZM25.214 16.853C25.214 17.2986 25.0819 17.7342 24.8343 18.1047C24.5867 18.4752 24.2349 18.764 23.8232 18.9345C23.4115 19.105 22.9585 19.1496 22.5215 19.0627C22.0844 18.9758 21.683 18.7612 21.3679 18.4461C21.0528 18.131 20.8382 17.7296 20.7513 17.2925C20.6644 16.8555 20.709 16.4025 20.8795 15.9908C21.05 15.5791 21.3388 15.2273 21.7093 14.9797C22.0798 14.7321 22.5154 14.6 22.961 14.6C23.2569 14.5997 23.5499 14.6578 23.8234 14.771C24.0968 14.8841 24.3452 15.0501 24.5544 15.2594C24.7635 15.4686 24.9294 15.7171 25.0424 15.9906C25.1554 16.264 25.2144 16.5571 25.214 16.853ZM12.448 22.11H24.462V25.11H12.448V22.11Z" fill="#F7B80C"/>
</g>
<defs>
<clipPath id="clip0_1_2">
<rect width="36" height="36" fill="white"/>
</clipPath>
</defs>
</svg>
