<svg id="beach_access_black_24dp" xmlns="http://www.w3.org/2000/svg" width="36" height="36" viewBox="0 0 36 36">
  <path id="Path_308" data-name="Path 308" d="M0,0H36V36H0Z" fill="none"/>
  <path id="Path_309" data-name="Path 309" d="M30,27.855,27.856,30l-9.663-9.663,2.145-2.142ZM18.176,3A15.129,15.129,0,0,0,7.466,7.425l-.015.015a15.182,15.182,0,0,0,0,21.465L28.9,7.44A15.128,15.128,0,0,0,18.176,3ZM7.706,24.405A12.1,12.1,0,0,1,6,18.18a11.955,11.955,0,0,1,.69-4,16.927,16.927,0,0,0,3.105,8.16L7.706,24.4Zm4.26-4.26A13.647,13.647,0,0,1,9.9,9.9a12.887,12.887,0,0,1,2.625-.27,13.809,13.809,0,0,1,7.62,2.34l-8.175,8.175ZM14.171,6.69a11.955,11.955,0,0,1,4-.69A12.1,12.1,0,0,1,24.4,7.71L22.316,9.795a16.875,16.875,0,0,0-8.145-3.1Z" transform="translate(1.504 1.5)" fill="#f7b80c"/>
</svg>
