<svg id="event_available_black_24dp" xmlns="http://www.w3.org/2000/svg" width="36.044" height="36.044" viewBox="0 0 36.044 36.044">
  <path id="Path_292" data-name="Path 292" d="M0,0H36.044V36.044H0Z" fill="none"/>
  <path id="Path_293" data-name="Path 293" d="M27.029,4h-1.5V1h-3V4H10.509V1h-3V4H6a3.012,3.012,0,0,0-3,3V28.033a3.012,3.012,0,0,0,3,3H27.029a3.012,3.012,0,0,0,3-3V7.007A3.012,3.012,0,0,0,27.029,4Zm0,24.029H6V13.015H27.029ZM6,10.011v-3H27.029v3Zm8.35,15.709,8.906-8.906-1.592-1.592-7.314,7.314-3.169-3.169L9.593,20.959Z" transform="translate(1.505 0.502)" fill="#000"/>
</svg>
