<?xml version="1.0" encoding="UTF-8" standalone="no"?>
<svg
   width="965.00024"
   height="965"
   viewBox="0 0 965.00024 965"
   version="1.1"
   id="svg18"
   xmlns="http://www.w3.org/2000/svg"
   xmlns:svg="http://www.w3.org/2000/svg">
  <defs
     id="defs22" />
  <g
     id="Subtraction_7"
     data-name="Subtraction 7"
     transform="translate(-806.99902,-792)"
     fill="#f7b80c"
     style="isolation:isolate;mix-blend-mode:soft-light">
    <path
       d="m 807.49951,1756.4999 v -171.1391 c 208.57829,-3.8639 404.06339,-87.9849 550.48399,-236.9013 C 1504.6997,1199.2428 1585.5,1001.7994 1585.5,792.50049 V 792.5 l 185.9991,1.2e-4 c -0.01,16.34595 -0.4305,32.87293 -1.255,49.1333 -0.8265,16.30493 -2.0795,32.78479 -3.7243,48.98175 -1.6332,16.0813 -3.697,32.32141 -6.1337,48.26929 -2.4203,15.83893 -5.274,31.81909 -8.4822,47.49646 -6.3581,31.07228 -14.3545,62.17098 -23.7666,92.43218 -9.3066,29.9216 -20.2186,59.7356 -32.433,88.6137 -12.1015,28.6113 -25.7663,56.9775 -40.6148,84.3107 -14.7425,27.1387 -30.9967,53.8942 -48.3113,79.5234 -17.231,25.5051 -35.9117,50.4867 -55.5234,74.2505 -19.5652,23.7072 -40.5094,46.7517 -62.2509,68.4931 -21.7424,21.7422 -44.7867,42.6864 -68.4933,62.2509 -23.7644,19.612 -48.7458,38.2928 -74.2503,55.5234 -25.6292,17.3146 -52.3847,33.5689 -79.5234,48.3113 -27.333,14.8485 -55.6992,28.5133 -84.3108,40.6149 -28.8776,12.2142 -58.6916,23.1263 -88.6136,32.4329 -30.2609,9.4121 -61.3595,17.4084 -92.4322,23.7668 -15.68114,3.2088 -31.66124,6.0625 -47.49645,8.4819 -15.94708,2.4366 -32.18732,4.5005 -48.26929,6.1338 -16.19696,1.6448 -32.67682,2.8978 -48.98175,3.7244 -16.26349,0.8244 -32.79028,1.2467 -49.1333,1.2551 z"
       stroke="none"
       id="path13" />
    <path
       d="m 807.99951,1755.9995 c 16.17114,-0.017 32.51917,-0.4385 48.60797,-1.2541 16.29663,-0.8261 32.76801,-2.0784 48.95648,-3.7226 16.0738,-1.6323 32.30555,-3.695 48.24439,-6.1305 15.8269,-2.4182 31.79871,-5.2704 47.47175,-8.4774 31.0564,-6.3551 62.1388,-14.3473 92.3838,-23.7543 29.9064,-9.3018 59.7048,-20.2082 88.5675,-32.4162 28.5967,-12.0952 56.948,-25.7528 84.2669,-40.5935 27.1246,-14.7349 53.8661,-30.9807 79.482,-48.2863 25.4914,-17.2218 50.46,-35.8929 74.2121,-55.4948 23.6943,-19.5544 46.7268,-40.4878 68.4579,-62.2188 21.7303,-21.7303 42.6638,-44.7629 62.2188,-68.4578 19.6016,-23.7517 38.2727,-48.7203 55.4949,-74.2122 17.3056,-25.6159 33.5514,-52.3575 48.2861,-79.4821 14.8409,-27.319 28.4985,-55.6704 40.5937,-84.2668 12.208,-28.8632 23.1142,-58.6615 32.4161,-88.5675 9.4072,-30.2454 17.3993,-61.3277 23.7543,-92.3839 3.2064,-15.66931 6.0587,-31.64105 8.4776,-47.47174 2.4355,-15.93964 4.4981,-32.17133 6.1304,-48.24438 1.6442,-16.18848 2.8965,-32.65986 3.7226,-48.95649 0.8155,-16.08569 1.2373,-32.43396 1.254,-48.60797 L 1585.9998,793 c -0.1282,209.2459 -80.9675,406.6178 -227.6597,555.8099 -146.3967,148.892 -341.8172,233.0511 -550.34059,237.0417 v 170.1479 m -1.00012,1.0005 -3.7e-4,-10e-5 h 4.9e-4 v -172.13 c 208.63289,-3.737 404.18259,-87.82 550.62759,-236.7611 C 1504.2507,1198.9862 1585,1001.6674 1585,792.50049 l -10e-5,-0.50049 186.9994,1.2e-4 c 0,16.5213 -0.4228,33.22846 -1.2558,49.65857 -0.8269,16.31177 -2.0804,32.80011 -3.7264,49.00696 -1.6339,16.08917 -3.6986,32.33777 -6.1367,48.29437 -2.4217,15.8476 -5.2769,31.83612 -8.4866,47.52118 -6.3616,31.0887 -14.3621,62.2036 -23.7791,92.4803 -9.3115,29.9374 -20.2292,59.767 -32.4499,88.6601 -12.108,28.6266 -25.7799,57.0074 -40.6359,84.3546 -14.7505,27.1534 -31.0133,53.9228 -48.3364,79.5644 -17.2388,25.5168 -35.929,50.5113 -55.5521,74.289 -19.5744,23.7184 -40.5292,46.7748 -62.283,68.5284 -21.7536,21.7537 -44.81,42.7087 -68.5285,62.2831 -23.7776,19.6229 -48.7721,38.3132 -74.2889,55.5521 -25.6416,17.323 -52.411,33.5859 -79.5644,48.3363 -27.3475,14.8564 -55.7285,28.5282 -84.3546,40.6359 -28.893,12.2207 -58.7227,23.1384 -88.6601,32.45 -30.2767,9.4169 -61.3917,17.4174 -92.4804,23.7791 -15.68503,3.2096 -31.67349,6.065 -47.52115,8.4864 -15.95654,2.4382 -32.20514,4.5029 -48.29431,6.1369 -16.20685,1.6459 -32.69519,2.8994 -49.00696,3.7263 -16.43634,0.8333 -33.14386,1.2559 -49.65869,1.2559 z"
       stroke="none"
       fill="#707070"
       id="path15"
       style="fill:#f7b80c;fill-opacity:1" />
  </g>
</svg>
