<svg xmlns="http://www.w3.org/2000/svg" width="36" height="36" viewBox="0 0 36 36">
  <g id="highlight_alt_black_24dp" transform="translate(0.062 -0.418)">
    <rect id="Rectangle_114" data-name="Rectangle 114" width="36" height="36" transform="translate(-0.062 0.418)" fill="none"/>
    <path id="Path_296" data-name="Path 296" d="M24.025,6h-3V3h3Zm-3,15.018v9.011l3.439-3.439,3.454,3.439,2.118-2.118-3.439-3.439,3.439-3.454Zm6.007-9.011h3v-3h-3Zm0,6.007h3v-3h-3ZM15.015,30.033h3v-3h-3ZM9.007,6h3V3h-3ZM3,24.025H6v-3H3Zm3,6.007v-3H3A3.012,3.012,0,0,0,6,30.033ZM27.029,3V6h3A3.012,3.012,0,0,0,27.029,3ZM15.015,6h3V3h-3ZM3,12.011H6v-3H3ZM9.007,30.033h3v-3h-3ZM3,18.018H6v-3H3ZM3,6H6V3A3.012,3.012,0,0,0,3,6Z" transform="translate(1.505 1.505)"/>
  </g>
</svg>
