<svg xmlns="http://www.w3.org/2000/svg" width="2329" height="435" viewBox="0 0 2329 435">
  <g id="Group_191" data-name="Group 191" transform="translate(-2276)" opacity="0.46" style="mix-blend-mode: multiply;isolation: isolate">
    <path id="Polygon_1" data-name="Polygon 1" d="M217.5,0,435,180H0Z" transform="translate(2456 0) rotate(90)" fill="#f7b80c"/>
    <path id="Subtraction_1" data-name="Subtraction 1" d="M229.449,0H0L180.549,217.5,0,435H229.45L410,217.5,229.45,0Z" transform="translate(2411 0)" fill="#f7b80c"/>
    <path id="Subtraction_2" data-name="Subtraction 2" d="M229.449,0H0L180.549,217.5,0,435H229.45L410,217.5,229.45,0Z" transform="translate(2759 0)" fill="#f7b80c"/>
    <path id="Subtraction_3" data-name="Subtraction 3" d="M229.449,0H0L180.549,217.5,0,435H229.45L410,217.5,229.45,0Z" transform="translate(3109 0)" fill="#f7b80c"/>
    <path id="Subtraction_8" data-name="Subtraction 8" d="M229.449,0H0L180.549,217.5,0,435H229.45L410,217.5,229.45,0Z" transform="translate(3460 0)" fill="#f7b80c"/>
    <path id="Subtraction_9" data-name="Subtraction 9" d="M229.449,0H0L180.549,217.5,0,435H229.45L410,217.5,229.45,0Z" transform="translate(3811 0)" fill="#f7b80c"/>
    <path id="Subtraction_10" data-name="Subtraction 10" d="M229.449,0H0L180.549,217.5,0,435H229.45L410,217.5,229.45,0Z" transform="translate(4195 0)" fill="#f7b80c"/>
  </g>
</svg>
