<svg id="vpn_key_black_24dp" xmlns="http://www.w3.org/2000/svg" width="36" height="36" viewBox="0 0 36 36">
  <path id="Path_339" data-name="Path 339" d="M0,0H36V36H0Z" transform="translate(0)" fill="none"/>
  <path id="Path_340" data-name="Path 340" d="M33,26H24V20H19.98a10.5,10.5,0,1,1,0-9H36v9H33Zm-6-3h3V17h3V14H17.91l-.345-1.005a7.5,7.5,0,1,0,0,5.01L17.91,17H27ZM10.5,20A4.5,4.5,0,1,1,15,15.5,4.513,4.513,0,0,1,10.5,20Zm0-6A1.5,1.5,0,1,0,12,15.5,1.5,1.5,0,0,0,10.5,14Z" transform="translate(0 2.5)" fill="#f7b80c"/>
</svg>
