<svg xmlns="http://www.w3.org/2000/svg" width="36" height="36" viewBox="0 0 36 36">
  <g id="precision_manufacturing_black_24dp" transform="translate(0.309 -0.418)">
    <g id="Group_165" data-name="Group 165">
      <rect id="Rectangle_117" data-name="Rectangle 117" width="36" height="36" transform="translate(-0.309 0.418)" fill="none"/>
    </g>
    <g id="Group_166" data-name="Group 166" transform="translate(4.505 3.552)">
      <path id="Path_301" data-name="Path 301" d="M28.426,11.353l-5.407,2.523-3.5-3.5v-2.1l3.5-3.5L28.426,7.3a1.129,1.129,0,1,0,.961-2.042L23.5,2.508a1.492,1.492,0,0,0-1.7.3L19.19,5.421a1.464,1.464,0,0,0-1.171-.6,1.506,1.506,0,0,0-1.5,1.5v1.5H11.741A4.5,4.5,0,1,0,5.223,13.2l3.9,12.645H7.505a3.012,3.012,0,0,0-3,3v1.5H24.025v-1.5a3.012,3.012,0,0,0-3-3H18.589L11.125,11.984a4.75,4.75,0,0,0,.616-1.156h4.776v1.5a1.506,1.506,0,0,0,1.5,1.5,1.464,1.464,0,0,0,1.171-.6L21.8,15.844a1.492,1.492,0,0,0,1.7.3L29.387,13.4a1.118,1.118,0,0,0,.541-1.5A1.131,1.131,0,0,0,28.426,11.353Zm-20.92-.526a1.5,1.5,0,1,1,1.5-1.5A1.506,1.506,0,0,1,7.505,10.828ZM15.18,25.846H12.266L8.572,13.831h.15Z" transform="translate(-3 -2.365)" fill="#000"/>
    </g>
  </g>
</svg>
