<svg width="3673" height="435" viewBox="0 0 3673 435" fill="none" xmlns="http://www.w3.org/2000/svg">
<g style="mix-blend-mode:multiply">
<path d="M1680.45 0H1451L1631.55 217.5L1451 435H1680.45L1861 217.5L1680.45 0Z" fill="#F7B80C"/>
<path d="M2028.45 0H1799L1979.55 217.5L1799 435H2028.45L2209 217.5L2028.45 0Z" fill="#F7B80C"/>
<path d="M2028.45 0H1799L1979.55 217.5L1799 435H2028.45L2209 217.5L2028.45 0Z" fill="#F7B80C"/>
<path d="M2378.45 0H2149L2329.55 217.5L2149 435H2378.45L2559 217.5L2378.45 0Z" fill="#F7B80C"/>
<path d="M2729.45 0H2500L2680.55 217.5L2500 435H2729.45L2910 217.5L2729.45 0Z" fill="#F7B80C"/>
<path d="M3080.45 0H2851L3031.55 217.5L2851 435H3080.45L3261 217.5L3080.45 0Z" fill="#F7B80C"/>
<path d="M275.449 0H46L226.549 217.5L46 435H275.45L456 217.5L275.449 0Z" fill="#F7B80C"/>
<path d="M625.449 0H396L576.549 217.5L396 435H625.45L806 217.5L625.449 0Z" fill="#F7B80C"/>
<path d="M976.449 0H747L927.549 217.5L747 435H976.45L1157 217.5L976.449 0Z" fill="#F7B80C"/>
<path d="M1327.45 0H1098L1278.55 217.5L1098 435H1327.45L1508 217.5L1327.45 0Z" fill="#F7B80C"/>
<path d="M3464.45 0H3235L3415.55 217.5L3235 435H3464.45L3645 217.5L3464.45 0Z" fill="#F7B80C"/>
</g>
</svg>
