<svg id="visibility_black_24dp_1_" data-name="visibility_black_24dp(1)" xmlns="http://www.w3.org/2000/svg" width="36.044" height="36.044" viewBox="0 0 36.044 36.044">
  <path id="Path_306" data-name="Path 306" d="M0,0H36.044V36.044H0Z" fill="none"/>
  <path id="Path_307" data-name="Path 307" d="M17.52,7a14.673,14.673,0,0,1,13.246,8.26,14.751,14.751,0,0,1-26.492,0A14.673,14.673,0,0,1,17.52,7m0-3A17.762,17.762,0,0,0,1,15.264a17.746,17.746,0,0,0,33.04,0A17.762,17.762,0,0,0,17.52,4Zm0,7.509a3.755,3.755,0,1,1-3.755,3.755,3.756,3.756,0,0,1,3.755-3.755m0-3a6.758,6.758,0,1,0,6.758,6.758A6.768,6.768,0,0,0,17.52,8.505Z" transform="translate(0.502 2.007)"/>
</svg>
