<svg width="1529" height="300" viewBox="0 0 1529 300" fill="none" xmlns="http://www.w3.org/2000/svg">
<g filter="url(#filter0_f_6_10)">
<path d="M379.308 215.093V91.1755H336.807V183.53C336.807 221.182 326.513 234.985 300.93 234.985C277.183 234.985 270.762 217.224 270.762 196.723V91.1755H214.705C222.757 91.1755 228.362 97.1633 228.362 102.948V205.35C228.362 250.715 253.027 269.998 286.763 269.998C310.919 269.998 326.92 261.879 336.705 243.713C336.909 251.426 337.316 261.27 337.928 265.938H379.41C379.41 252.136 379.308 232.041 379.308 215.093Z" fill="#F0F0F0"/>
<path d="M506.188 86.4716C474.591 86.4716 460.413 102.714 454.135 115.177C454.033 109.661 453.932 90.5579 453.932 90.5579H398.233C405.93 90.5579 411.398 96.1764 411.702 101.795C411.803 112.317 411.803 123.861 411.803 134.894V266.471H454.033V170.035C454.033 137.55 466.287 121.409 490.997 121.409C514.087 121.409 521.885 136.937 521.885 159.002V266.471H564.115V154.099C564.115 109.048 540.417 86.4716 506.188 86.4716Z" fill="#F0F0F0"/>
<path d="M1259.54 120.266C1280.59 120.266 1289.74 132.074 1293.2 147.546H1334.7C1333.27 126.781 1316.49 86.4716 1260.35 86.4716C1207.36 86.4716 1177.05 128.308 1177.05 179.406C1177.05 233.254 1205.73 270 1258.11 270C1307.75 270 1328.19 239.768 1334.7 210.249H1292.9C1287.61 226.026 1277.44 236.511 1258.93 236.511C1234.62 236.511 1220.07 216.153 1220.07 177.981C1220.18 142.151 1234.42 120.266 1259.54 120.266Z" fill="#F0F0F0"/>
<path d="M883.18 86.4716C828.603 86.4716 797.054 125.356 797.054 178.694C797.054 231.116 828.197 270 881.05 270C935.728 270 966.465 230.098 966.465 177.88C966.364 122.913 933.597 86.4716 883.18 86.4716ZM882.165 236.206C856.094 236.206 840.066 213.506 840.066 178.185C840.066 140.115 855.587 120.164 881.455 120.164C908.439 120.164 923.351 140.828 923.351 178.389C923.351 214.015 908.642 236.206 882.165 236.206Z" fill="#F0F0F0"/>
<path d="M1432.51 156.95C1402.85 149.922 1396.86 144.932 1396.86 134.747C1396.86 125.683 1402.75 116.924 1421.64 116.924C1445.82 116.924 1451.5 130.368 1453.43 138.515H1493.86C1492.13 114.48 1473.95 86.4716 1423.57 86.4716C1373.4 86.4716 1355.22 112.85 1355.22 138.312C1355.22 162.755 1364.86 179.662 1419.51 193.105C1447.34 199.929 1455.06 205.429 1455.06 218.364C1455.06 230.789 1447.34 238.733 1426.82 238.733C1406.81 238.733 1394.52 229.77 1390.46 213.984H1348.82C1352.88 245.149 1374.92 270 1425.4 270C1475.48 270 1498.23 244.946 1498.23 215.308C1498.13 189.541 1489.09 170.292 1432.51 156.95Z" fill="#F0F0F0"/>
<path d="M1100.58 91.1755C1108.68 91.1755 1114.32 97.178 1114.32 102.977V266.469H1157.05V91.1755H1100.58Z" fill="#F0F0F0"/>
<path d="M1157.05 41.0612V34.7039H1114.7V82.9389H1114.8C1126.01 82.8938 1136.75 78.4641 1144.66 70.6173C1152.58 62.7706 1157.03 52.1448 1157.05 41.0612Z" fill="#F0F0F0"/>
<path d="M1080.58 122.746V90.2522H1044.32V48.8232H1001.8V90.3538H973.524V122.847H1001.8V220.733C1001.8 250.79 1013.48 267.646 1045.55 267.646C1054.97 267.646 1067.26 267.442 1076.18 264.295V234.543C1072.01 235.145 1067.79 235.416 1063.58 235.355C1048.52 235.355 1044.42 228.958 1044.42 214.438V122.746H1080.58Z" fill="#F0F0F0"/>
<path d="M206.47 101.716C206.47 57.4418 173.449 30 124.782 30H30.0903C30.0903 30 29.8871 38.8752 30.0903 47.5465V266.469H74.3883V192.815C74.1851 184.144 74.3883 175.166 74.3883 175.166H105.275L148.76 266.469H202.202L152.926 171.392C184.422 162.925 206.47 139.971 206.47 101.716ZM118.686 139.257H74.4899V83.4555C74.2867 74.7843 74.4899 65.807 74.4899 65.807H119.804C143.477 65.807 161.664 76.7226 161.664 102.634C161.664 127.934 145.204 139.257 118.686 139.257Z" fill="#F0F0F0"/>
<path d="M738.654 141.352C755.315 134.418 769.943 116.981 769.943 89.9586C769.943 58.5517 747.797 30 693.345 30H594.703V47.9468V266.469H696.393C744.648 266.469 777.055 238.122 777.055 196.212C777.055 163.887 754.807 147.164 738.654 141.352ZM637.979 64.8739H690.094C712.444 64.8739 726.159 75.8867 726.159 94.4453C726.159 113.31 714.984 125.036 687.453 125.036H638.081V101.175L637.979 82.7187C637.979 73.9492 637.979 64.8739 637.979 64.8739ZM688.266 231.595H638.081V177.755V159.808H685.929C717.93 159.808 731.644 173.676 731.644 194.988C731.746 219.257 716.508 231.595 688.266 231.595Z" fill="#F0F0F0"/>
</g>
<defs>
<filter id="filter0_f_6_10" x="0" y="0" width="1528.23" height="300" filterUnits="userSpaceOnUse" color-interpolation-filters="sRGB">
<feFlood flood-opacity="0" result="BackgroundImageFix"/>
<feBlend mode="normal" in="SourceGraphic" in2="BackgroundImageFix" result="shape"/>
<feGaussianBlur stdDeviation="15" result="effect1_foregroundBlur_6_10"/>
</filter>
</defs>
</svg>
