<svg width="18" height="20" viewBox="0 0 18 20" fill="none" xmlns="http://www.w3.org/2000/svg">
    <path
        d="M7.58075 14.723L14.3038 8L13.25 6.94625L7.58075 12.6155L4.73075 9.7655L3.677 10.8193L7.58075 14.723ZM2.30775 19.5C1.80908 19.5 1.38308 19.3234 1.02975 18.9703C0.676583 18.6169 0.5 18.1909 0.5 17.6923V4.30775C0.5 3.80908 0.676583 3.38308 1.02975 3.02975C1.38308 2.67658 1.80908 2.5 2.30775 2.5H6.75775C6.82058 1.94483 7.06292 1.47275 7.48475 1.08375C7.90642 0.694583 8.4115 0.5 9 0.5C9.59483 0.5 10.1032 0.694583 10.525 1.08375C10.9468 1.47275 11.1859 1.94483 11.2423 2.5H15.6923C16.1909 2.5 16.6169 2.67658 16.9703 3.02975C17.3234 3.38308 17.5 3.80908 17.5 4.30775V17.6923C17.5 18.1909 17.3234 18.6169 16.9703 18.9703C16.6169 19.3234 16.1909 19.5 15.6923 19.5H2.30775ZM2.30775 18H15.6923C15.7692 18 15.8398 17.9679 15.9038 17.9038C15.9679 17.8398 16 17.7693 16 17.6923V4.30775C16 4.23075 15.9679 4.16025 15.9038 4.09625C15.8398 4.03208 15.7692 4 15.6923 4H2.30775C2.23075 4 2.16025 4.03208 2.09625 4.09625C2.03208 4.16025 2 4.23075 2 4.30775V17.6923C2 17.7693 2.03208 17.8398 2.09625 17.9038C2.16025 17.9679 2.23075 18 2.30775 18ZM9 3.34625C9.21667 3.34625 9.39583 3.27542 9.5375 3.13375C9.67917 2.99208 9.75 2.81292 9.75 2.59625C9.75 2.37958 9.67917 2.20042 9.5375 2.05875C9.39583 1.91708 9.21667 1.84625 9 1.84625C8.78333 1.84625 8.60417 1.91708 8.4625 2.05875C8.32083 2.20042 8.25 2.37958 8.25 2.59625C8.25 2.81292 8.32083 2.99208 8.4625 3.13375C8.60417 3.27542 8.78333 3.34625 9 3.34625Z"
        fill="#FBB040" />
</svg>