<svg width="21" height="20" viewBox="0 0 21 20" fill="none" xmlns="http://www.w3.org/2000/svg">
    <path
        d="M9.00125 19.5C7.82092 19.5 6.71517 19.2797 5.684 18.839C4.65267 18.3983 3.75125 17.7924 2.97975 17.0213C2.20825 16.2501 1.60208 15.3491 1.16125 14.3183C0.720417 13.2874 0.5 12.1818 0.5 11.0013C0.5 9.82093 0.720417 8.71518 1.16125 7.68401C1.60192 6.65268 2.20792 5.75126 2.97925 4.97976C3.75058 4.20826 4.65175 3.60209 5.68275 3.16126C6.71375 2.72043 7.8195 2.50001 9 2.50001C9.35 2.50001 9.6875 2.52084 10.0125 2.56251C10.3375 2.60418 10.6667 2.66668 11 2.75001V4.30001C10.6667 4.20001 10.3375 4.12501 10.0125 4.07501C9.6875 4.02501 9.35 4.00001 9 4.00001C7.04617 4.00001 5.391 4.67818 4.0345 6.03451C2.67817 7.39101 2 9.04618 2 11C2 12.9538 2.67817 14.609 4.0345 15.9655C5.391 17.3218 7.04617 18 9 18C10.9538 18 12.609 17.3218 13.9655 15.9655C15.3218 14.609 16 12.9533 16 10.9983C16 10.8161 15.9917 10.6404 15.975 10.4713C15.9583 10.3019 15.9302 10.1256 15.8905 9.94226H17.421C17.4543 10.1128 17.4758 10.2858 17.4855 10.4615C17.4952 10.6372 17.5 10.8167 17.5 11C17.5 12.1805 17.2797 13.2863 16.839 14.3173C16.3983 15.3483 15.7924 16.2494 15.0212 17.0208C14.2501 17.7921 13.3491 18.3981 12.3182 18.8388C11.2874 19.2796 10.1818 19.5 9.00125 19.5ZM11.973 15.027L8.25 11.3038V6.00001H9.75V10.6963L13.027 13.973L11.973 15.027ZM16 7.94226V4.94226H13V3.44226H16V0.442261H17.5V3.44226H20.5V4.94226H17.5V7.94226H16Z"
        fill="#FBB040" />
</svg>