<svg id="asana-1" xmlns="http://www.w3.org/2000/svg" width="102" height="66.953" viewBox="0 0 102 66.953">
  <path id="Path_393" data-name="Path 393" d="M9.578,135.79a6.222,6.222,0,0,1,0-12.441,6.222,6.222,0,0,1,0,12.441Zm6.105.789c0,.57.976,2.17,2.172,2.17h.775a.547.547,0,0,0,.546-.546V121.18h0a.546.546,0,0,0-.543-.516h-2.4a.547.547,0,0,0-.544.516h0v1.383A7.7,7.7,0,0,0,9.569,120a9.57,9.57,0,0,0,0,19.14c2.325,0,4.859-.9,6.114-2.563v0Zm9.228-2.438a8.852,8.852,0,0,0,5.032,1.649c1.6,0,3.256-.83,3.256-2.275,0-1.928-3.607-2.229-5.873-3s-4.219-2.363-4.219-4.941c0-3.945,3.516-5.575,6.8-5.575a10.241,10.241,0,0,1,5.615,1.668.555.555,0,0,1,.187.78l-1.328,1.9a.552.552,0,0,1-.785.167,6.026,6.026,0,0,0-3.69-1.161c-2.228,0-3.207.925-3.207,2.071,0,1.375,1.567,1.807,3.4,2.275,3.2.862,6.69,1.9,6.69,5.821,0,3.476-3.252,5.625-6.846,5.625a11.506,11.506,0,0,1-6.987-2.2.589.589,0,0,1-.122-.782l1.321-1.886A.526.526,0,0,1,24.912,134.142ZM54.79,136.58c0,.569.976,2.17,2.171,2.17h.775a.548.548,0,0,0,.546-.546V121.18h0a.547.547,0,0,0-.543-.516h-2.4a.546.546,0,0,0-.543.516h0v1.383A7.7,7.7,0,0,0,48.676,120a9.57,9.57,0,1,0,0,19.14c2.325,0,4.859-.9,6.114-2.563v0Zm-6.105-.789a6.222,6.222,0,1,1,6.086-6.221,6.154,6.154,0,0,1-6.086,6.221Zm31.1,1.374v-8.808c0-4.965-3.133-8.315-8.128-8.315a6.07,6.07,0,0,0-5.025,2.564v-.017l0,.014a1.956,1.956,0,0,0-2.172-1.9h-.771a.548.548,0,0,0-.546.547v17.024h0a.546.546,0,0,0,.543.517h2.4a.6.6,0,0,0,.108-.011c.016,0,.031-.01.046-.014a.436.436,0,0,0,.053-.017.517.517,0,0,0,.061-.032l.029-.016a.6.6,0,0,0,.067-.053l.011-.009a.541.541,0,0,0,.167-.365h0V128.22a4.829,4.829,0,1,1,9.658,0l0,8.405v0c0,.008,0,.016,0,.023v1.63h0a.546.546,0,0,0,.543.517h2.4a.6.6,0,0,0,.108-.011c.014,0,.027-.009.041-.012s.04-.011.059-.019a.5.5,0,0,0,.056-.03.35.35,0,0,0,.034-.018.635.635,0,0,0,.063-.05l.016-.013a.6.6,0,0,0,.061-.07.543.543,0,0,0,.106-.292v0h0v-1.11Zm18.719-.585c0,.569.975,2.17,2.171,2.17h.775A.548.548,0,0,0,102,138.2V121.18h0a.547.547,0,0,0-.543-.516h-2.4a.546.546,0,0,0-.543.516h0v1.383A7.7,7.7,0,0,0,92.392,120a9.57,9.57,0,0,0,0,19.14c2.326,0,4.859-.9,6.114-2.563v0Zm-6.1-.789a6.222,6.222,0,1,1,6.085-6.221,6.154,6.154,0,0,1-6.085,6.221Z" transform="translate(0 -72.188)" fill="#fff"/>
  <path id="Path_394" data-name="Path 394" d="M110.175,18.869a8.387,8.387,0,1,0,8.386,8.386A8.386,8.386,0,0,0,110.175,18.869Zm-21.789,0a8.386,8.386,0,1,0,8.387,8.386,8.386,8.386,0,0,0-8.387-8.386Zm19.28-10.483A8.386,8.386,0,1,1,99.281,0a8.387,8.387,0,0,1,8.386,8.386Z" transform="translate(-48.125)" fill="#fff"/>
</svg>
