<?xml version="1.0" encoding="utf-8"?>
<svg version="1.1" id="Warstwa_1" xmlns="http://www.w3.org/2000/svg" xmlns:xlink="http://www.w3.org/1999/xlink" x="0px" y="0px"
	 viewBox="0 0 1200 400" style="enable-background:new 0 0 1200 400;" xml:space="preserve">
<style type="text/css">
	.st0{fill:#F7A720;}
	.st1{fill:#716F6F;}
</style>
<g>
	<path class="st0" d="M205.74,209.52c3.95,5.17,5.92,11.51,5.92,19.05c0,10.67-4.15,18.87-12.44,24.6
		c-8.28,5.75-20.37,8.62-36.26,8.62H100V140.04h59.49c14.83,0,26.23,2.84,34.17,8.52c7.94,5.69,11.92,13.39,11.92,23.14
		c0,5.9-1.42,11.18-4.26,15.82c-2.84,4.64-6.81,8.29-11.92,10.95C196.35,200.68,201.8,204.36,205.74,209.52z M128.01,161.25v28.7
		H156c6.95,0,12.23-1.22,15.82-3.65c3.59-2.43,5.39-6.03,5.39-10.78c0-4.76-1.8-8.32-5.39-10.7c-3.59-2.38-8.87-3.57-15.82-3.57
		H128.01z M177.66,236.92c3.76-2.43,5.65-6.21,5.65-11.31c0-10.09-7.47-15.13-22.43-15.13h-32.86v30.09h32.86
		C168.29,240.57,173.88,239.35,177.66,236.92z"/>
	<path class="st0" d="M339.65,222.65h-70.78c1.27,5.8,4.29,10.37,9.04,13.74c4.76,3.35,10.67,5.04,17.75,5.04
		c4.87,0,9.19-0.72,12.95-2.18c3.76-1.44,7.27-3.74,10.52-6.86l14.44,15.65c-8.8,10.09-21.68,15.13-38.61,15.13
		c-10.54,0-19.89-2.05-27.99-6.17c-8.11-4.12-14.38-9.82-18.78-17.14c-4.42-7.3-6.61-15.58-6.61-24.87c0-9.16,2.18-17.41,6.52-24.78
		c4.35-7.36,10.32-13.09,17.9-17.21c7.6-4.12,16.09-6.17,25.49-6.17c9.16,0,17.44,1.97,24.87,5.9c7.42,3.95,13.25,9.6,17.48,16.96
		c4.23,7.37,6.34,15.92,6.34,25.66C340.18,215.69,340.01,218.12,339.65,222.65z M276.18,192.56c-4.18,3.48-6.72,8.24-7.64,14.27
		h46.08c-0.93-5.92-3.48-10.64-7.66-14.18c-4.18-3.54-9.27-5.31-15.3-5.31C285.52,187.34,280.35,189.08,276.18,192.56z"/>
	<path class="st0" d="M466.78,222.65H396c1.27,5.8,4.29,10.37,9.04,13.74c4.76,3.35,10.67,5.04,17.75,5.04
		c4.87,0,9.19-0.72,12.95-2.18c3.76-1.44,7.27-3.74,10.52-6.86l14.44,15.65c-8.8,10.09-21.68,15.13-38.61,15.13
		c-10.54,0-19.89-2.05-27.99-6.17c-8.11-4.12-14.38-9.82-18.78-17.14c-4.42-7.3-6.61-15.58-6.61-24.87c0-9.16,2.18-17.41,6.52-24.78
		c4.35-7.36,10.32-13.09,17.9-17.21c7.6-4.12,16.09-6.17,25.49-6.17c9.16,0,17.44,1.97,24.87,5.9c7.42,3.95,13.25,9.6,17.48,16.96
		c4.23,7.37,6.34,15.92,6.34,25.66C467.3,215.69,467.13,218.12,466.78,222.65z M403.3,192.56c-4.18,3.48-6.72,8.24-7.64,14.27h46.08
		c-0.93-5.92-3.48-10.64-7.66-14.18c-4.18-3.54-9.27-5.31-15.3-5.31C412.64,187.34,407.48,189.08,403.3,192.56z"/>
	<path class="st1" d="M529.91,255.43c-9.98-5.39-17.8-12.87-23.48-22.43c-5.68-9.57-8.52-20.25-8.52-32.09
		c0-11.83,2.84-22.52,8.52-32.09c5.68-9.57,13.5-17.04,23.48-22.43c9.96-5.39,21.16-8.1,33.56-8.1c12.41,0,23.59,2.7,33.57,8.1
		s17.79,12.84,23.48,22.35c5.68,9.5,8.52,20.22,8.52,32.17c0,11.95-2.84,22.67-8.52,32.17c-5.69,9.51-13.5,16.96-23.48,22.35
		s-21.16,8.1-33.57,8.1C551.07,263.52,539.88,260.82,529.91,255.43z M585.39,238.22c6.48-3.65,11.59-8.76,15.3-15.31
		c3.71-6.54,5.56-13.88,5.56-21.99c0-8.11-1.85-15.46-5.56-21.99c-3.71-6.55-8.82-11.66-15.3-15.31c-6.5-3.65-13.8-5.48-21.92-5.48
		c-8.11,0-15.41,1.83-21.91,5.48s-11.59,8.76-15.3,15.31c-3.71,6.54-5.56,13.88-5.56,21.99c0,8.11,1.85,15.46,5.56,21.99
		c3.71,6.55,8.8,11.66,15.3,15.31s13.8,5.48,21.91,5.48C571.59,243.7,578.9,241.87,585.39,238.22z"/>
	<path class="st1" d="M692.35,164.04v5.56h25.56V187h-24.87v74.78H671.3V187H656V169.6h15.3v-5.92c0-9.96,2.9-17.82,8.7-23.56
		c5.79-5.73,13.97-8.61,24.51-8.61c8.35,0,14.9,1.68,19.66,5.04l-6.09,16.35c-3.72-2.55-7.71-3.82-12-3.82
		C696.93,149.08,692.35,154.06,692.35,164.04z"/>
	<path class="st1" d="M773.91,164.04v5.56h25.56V187h-24.87v74.78h-21.74V187h-15.31V169.6h15.31v-5.92
		c0-9.96,2.89-17.82,8.69-23.56c5.8-5.73,13.97-8.61,24.53-8.61c8.35,0,14.89,1.68,19.64,5.04l-6.09,16.35
		c-3.71-2.55-7.71-3.82-12-3.82C778.48,149.08,773.91,154.06,773.91,164.04z M829.04,149.86c-2.67-2.49-4.01-5.59-4.01-9.3
		c0-3.71,1.33-6.81,4.01-9.3c2.66-2.49,5.97-3.75,9.91-3.75c3.95,0,7.25,1.2,9.92,3.57c2.66,2.38,3.99,5.36,3.99,8.96
		c0,3.82-1.3,7.05-3.91,9.65c-2.6,2.6-5.94,3.92-10.01,3.92C835.01,153.61,831.7,152.37,829.04,149.86z M827.99,168.91h21.74v92.87
		h-21.74V168.91z"/>
	<path class="st1" d="M912.34,256.91c-7.66-4.06-13.63-9.71-17.92-16.96S888,224.5,888,215.35c0-9.16,2.14-17.34,6.43-24.53
		c4.29-7.19,10.23-12.81,17.83-16.87c7.59-4.05,16.26-6.09,26-6.09c9.16,0,17.18,1.85,24.09,5.56c6.89,3.72,12.09,9.04,15.57,16.01
		l-16.7,9.74c-2.67-4.29-6-7.5-10.01-9.65c-3.99-2.14-8.38-3.21-13.12-3.21c-8.12,0-14.85,2.63-20.18,7.91
		c-5.34,5.28-8,12.31-8,21.13c0,8.82,2.63,15.85,7.91,21.13c5.28,5.28,12.03,7.91,20.27,7.91c4.74,0,9.13-1.08,13.12-3.21
		c4.01-2.15,7.33-5.36,10.01-9.65l16.7,9.74c-3.59,6.95-8.85,12.31-15.74,16.08c-6.91,3.78-14.87,5.66-23.92,5.66
		C928.63,263,920,260.98,912.34,256.91z"/>
	<path class="st1" d="M1099.65,222.3h-72.86c1.27,6.85,4.6,12.27,9.99,16.26c5.39,4.01,12.09,6,20.1,6
		c10.19,0,18.6-3.35,25.21-10.08l11.66,13.39c-4.18,4.98-9.45,8.75-15.84,11.29c-6.37,2.56-13.56,3.84-21.56,3.84
		c-10.2,0-19.19-2.02-26.96-6.09c-7.77-4.06-13.77-9.71-18-16.96s-6.34-15.46-6.34-24.61c0-9.04,2.05-17.2,6.17-24.44
		c4.12-7.23,9.82-12.89,17.13-16.96c7.3-4.05,15.54-6.09,24.7-6.09c9.04,0,17.14,2.01,24.26,6c7.13,4.01,12.7,9.62,16.7,16.87
		c4.01,7.25,6,15.63,6,25.14C1100,217.37,1099.89,219.52,1099.65,222.3z M1035.39,191.43c-4.81,4.12-7.74,9.6-8.79,16.43h52.71
		c-0.93-6.72-3.78-12.17-8.52-16.35c-4.76-4.18-10.67-6.26-17.75-6.26C1046.09,185.26,1040.2,187.32,1035.39,191.43z"/>
</g>
</svg>
