<svg id="Component_4_2" data-name="Component 4 – 2" xmlns="http://www.w3.org/2000/svg" width="60.674" height="59.274" viewBox="0 0 60.674 59.274">
  <path id="Path_524" data-name="Path 524" d="M0,0H54V45H0Z" transform="translate(5.674 7)" fill="#fff"/>
  <g id="Component_5_1" data-name="Component 5 – 1">
    <path id="Subtraction_17" data-name="Subtraction 17" d="M35.826,59.274h-4.28c-6.937-1.261-13.93-2.467-20.693-3.633h-.006l-.009,0C6.98,54.974,3.5,54.373,0,53.76V5.521c3.433-.6,6.9-1.2,10.455-1.813l.013,0h.01c6.561-1.135,14-2.422,21.255-3.7h4.094V5.514h.481l4.119,0h4.6c3.145,0,7.294,0,11.5-.024.175.007.357.012.514.015a5.252,5.252,0,0,1,2.946.646,5.252,5.252,0,0,1,.66,2.977c0,.155.008.336.015.511-.031,10.852-.023,22.03-.016,31.893v.007l0,3.982c-.01.58,0,1.184.012,1.717a19.072,19.072,0,0,1-.246,4.314c-.269,1.4-1.883,1.464-3.061,1.513l-.089,0c-1.664,0-3.374.007-5.228.007-2.032,0-4.039,0-6.264-.005h-.007c-1.781,0-4,0-6.132,0-1.475,0-2.684,0-3.8,0v6.2Zm0-12.406V51H58.572V7.582H35.826v4.135h5.514v4.825H35.826V19.3h5.514v4.825H35.826V26.88h5.514v4.825H35.826v2.757h5.514v4.825H35.826v2.757h5.514v4.825Zm-18.968-15.1v0a46.265,46.265,0,0,0,2.328,6.063l.036.083c.36.82.731,1.668,1.074,2.51,1.67.117,3.344.224,4.976.317-.9-1.835-1.849-3.729-2.682-5.4l0-.009-.019-.038,0-.008c-.995-1.995-2.023-4.058-3.024-6.1,1.874-3.765,3.745-7.565,5.561-11.3-1.478.071-3.011.163-4.687.282-.354.86-.727,1.717-1.088,2.547a58.888,58.888,0,0,0-2.344,5.972c-.626-2.04-1.415-4.056-2.178-6.005l-.01-.026c-.265-.676-.546-1.394-.81-2.088-1.547.085-3.159.18-4.549.262.639,1.409,1.305,2.834,1.95,4.213l.027.059c.959,2.05,1.95,4.168,2.875,6.288-1.2,2.262-2.351,4.552-3.465,6.767l-.026.052c-.593,1.178-1.206,2.4-1.815,3.588l.07,0c1.38.057,2.944.121,4.458.142.43-1.1.9-2.179,1.359-3.227.7-1.6,1.423-3.261,1.989-4.954Z" fill="#207245"/>
    <path id="Path_418" data-name="Path 418" d="M79.975,21.25h9.649v4.825H79.975Z" transform="translate(-35.877 -9.533)" fill="#207245"/>
    <path id="Path_419" data-name="Path 419" d="M79.975,35h9.649v4.825H79.975Zm0,7.582h9.649v4.825H79.975Zm0,7.582h9.649v4.825H79.975Zm0,7.582h9.649V62.57H79.975Z" transform="translate(-35.877 -15.702)" fill="#207245"/>
  </g>
</svg>
