<svg xmlns="http://www.w3.org/2000/svg" width="174.405" height="223.607" viewBox="0 0 174.405 223.607">
  <g id="Group_7" data-name="Group 7" transform="translate(1683.472 -1417.159)">
    <rect id="Rectangle_10" data-name="Rectangle 10" width="122.737" height="100.655" transform="translate(-1655.133 1431.037)" fill="#fff"/>
    <g id="Group_5" data-name="Group 5" transform="translate(-1558 1417.159)">
      <path id="Path_1" data-name="Path 1" d="M78.586,0c.4.224.36.608.359.982q0,4.707,0,9.414c0,.315.026.629.043,1.023h1.2q23.2,0,46.4-.005a6.3,6.3,0,0,1,4.146,1.336,4.573,4.573,0,0,1,1.863,3.562c.013.581.058,1.162.058,1.743q0,45.662,0,91.325c0,.516-.034,1.033-.057,1.549a4.976,4.976,0,0,1-3.466,4.561,6.961,6.961,0,0,1-2.753.435q-23.1-.007-46.206,0H78.995c-.021.309-.048.527-.048.746q0,7.764,0,15.528c0,.129.018.257.028.386H77.809c-.078-.049-.151-.129-.235-.143-4-.679-8-1.341-12-2.029-5.106-.878-10.208-1.783-15.313-2.664-4.313-.744-8.631-1.464-12.944-2.208q-7.706-1.329-15.409-2.68Q15.4,121.725,8.881,120.6c-2.951-.5-5.906-.988-8.859-1.481-.007-.453-.022-.905-.022-1.358Q0,65.709,0,13.655C0,13.2.014,12.75.021,12.3c.444-.078.886-.163,1.332-.231,3.626-.551,7.255-1.09,10.88-1.651,4.323-.669,8.642-1.366,12.965-2.034,4.038-.624,8.082-1.215,12.12-1.838,4.388-.677,8.771-1.381,13.158-2.06,4.356-.675,8.714-1.331,13.071-2Q70.414,1.424,77.279.346A4.737,4.737,0,0,0,78.2,0ZM90.349,58.974v10.5H78.441v6.075h11.9V86.027H86.41q-1.99,0-3.979,0c-1.278,0-2.557.007-3.875.01,0,1.137-.009,2.138,0,3.14.012.985-.054,1.975.046,3.027H90.33V102.7H78.58l.157,8.823h48.875V16.41h-49.2v9.442H90.375V36.266H78.431v6.082h4.04c1.326,0,2.653,0,3.979,0s2.626-.022,3.926.018V52.843H78.421v6.131ZM20.694,41.15a6.364,6.364,0,0,0,.214.683Q23.5,47.616,26.1,53.395c1.531,3.414,3.039,6.838,4.6,10.239a2.418,2.418,0,0,1-.074,2.372c-1.006,1.841-1.943,3.72-2.909,5.582Q26.31,74.295,24.9,77c-1.708,3.28-3.418,6.559-5.18,9.939l9.882.87,7.268-18.342L44.132,88.51l10.746.739L42.529,64.21l12.331-25L44.708,39.8,37.151,58.152l-6.4-17.582-10.062.58" transform="translate(-104.6)" fill="#027937"/>
      <path id="Path_2" data-name="Path 2" d="M3691.117,354.486h-7.984c-.189-.685-.256-63.222-.074-64.7h8.058Z" transform="translate(-3642.185 -132.069)" fill="#027937"/>
      <path id="Path_3" data-name="Path 3" d="M1807.036,398.566h25.353v7.2h-33.843c-.183-.632-.266-57.581-.079-59.657h33.217v7.225c-1.338,0-2.7,0-4.071,0h-20.57v17.548h22.868v7.362h-22.875Z" transform="translate(-1923.834 -183.422)" fill="#027937"/>
      <path id="Path_4" data-name="Path 4" d="M3182.028,538.031h-31.6c.1.644.155,1.191.273,1.724a16.77,16.77,0,0,0,3.815,7.9,12.847,12.847,0,0,0,7.583,4.275,21.371,21.371,0,0,0,11.79-1.5c1.429-.6,2.8-1.329,4.2-2,.174-.084.346-.172.6-.3v7.756a33.911,33.911,0,0,1-9.8,2.909,36.45,36.45,0,0,1-5.057.312,22.306,22.306,0,0,1-12.772-4.072,20.433,20.433,0,0,1-7.587-11.023c-.335-1.118-.492-2.287-.795-3.416a10.382,10.382,0,0,1-.306-2.395c-.037-1.17-.162-2.341-.13-3.508a25.554,25.554,0,0,1,3.115-12.019,18.82,18.82,0,0,1,12.14-9.163,24.058,24.058,0,0,1,7.949-.491,16.715,16.715,0,0,1,5.35,1.268,16.088,16.088,0,0,1,7.349,6.574,22,22,0,0,1,2.816,7.531c.318,1.572.542,3.167.73,4.761.167,1.418.229,2.848.334,4.273.013.169,0,.339,0,.6m-8.26-6.383a18.951,18.951,0,0,0-1.262-5.422c-1.669-4.318-4.783-6.708-9.429-6.913a10.714,10.714,0,0,0-9.12,4.051,16.586,16.586,0,0,0-3.42,8.283Z" transform="translate(-3149.169 -335.514)" fill="#027937"/>
      <path id="Path_5" data-name="Path 5" d="M2235.859,569.776c.723-1.1,1.43-2.214,2.171-3.3q3.884-5.713,7.788-11.414,2.531-3.707,5.058-7.416c.147-.215.277-.442.44-.7l-2.813-4.045-11.259-16.175c-.049-.071-.086-.151-.129-.227q.018-.168.036-.336h9.622a1.531,1.531,0,0,0,.09.162c2.586,3.917,5.2,7.815,7.744,11.762.849,1.319,1.5,2.767,2.2,4.087,2.312-4.738,5.45-9.068,8.242-13.607.506-.822,1.039-1.627,1.527-2.388h8.956l-13.969,20.789,15.551,22.962c-.3.026-.46.052-.62.052-2.909,0-5.818-.008-8.726.012a1.082,1.082,0,0,1-1.061-.573c-2.807-4.4-5.665-8.77-8.457-13.181-.733-1.158-1.289-2.429-1.927-3.648-.067-.127-.136-.253-.219-.405-2.185,4.676-5.23,8.783-7.934,13.1-.98,1.565-1.993,3.11-3,4.674h-9.261l-.057-.175" transform="translate(-2322.74 -347.586)" fill="#027937"/>
      <path id="Path_6" data-name="Path 6" d="M2760.569,554.955c.222,2.53.434,4.933.647,7.366a22.408,22.408,0,0,1-5.948,1.884,28.112,28.112,0,0,1-6.74.344,22.672,22.672,0,0,1-13.085-5.091,20.292,20.292,0,0,1-6.4-10.392,25.586,25.586,0,0,1-.867-8,22.9,22.9,0,0,1,4.979-13.624,20.87,20.87,0,0,1,12-7.307,23.683,23.683,0,0,1,6.465-.476,27.773,27.773,0,0,1,8.227,1.648,2.431,2.431,0,0,1,.275.172c-.157,2.272-.32,4.615-.49,7.079-.358-.164-.637-.3-.922-.422-5.374-2.31-10.623-2.159-15.612,1a13.242,13.242,0,0,0-5.9,8.927,17.483,17.483,0,0,0,2.488,13.623,13.433,13.433,0,0,0,8.75,5.715,14.656,14.656,0,0,0,4.068.239,16.071,16.071,0,0,0,7.042-2.205c.293-.169.612-.292,1.017-.483" transform="translate(-2771.605 -341.628)" fill="#027937"/>
      <path id="Path_7" data-name="Path 7" d="M999.8,265.942h20.425v10.287c-.676.19-19.244.235-20.425.042Z" transform="translate(-1007.291 -240.111)" fill="#027937"/>
      <rect id="Rectangle_1" data-name="Rectangle 1" width="20.418" height="10.394" transform="translate(-7.486 42.396)" fill="#027937"/>
      <rect id="Rectangle_2" data-name="Rectangle 2" width="20.414" height="10.392" transform="translate(-7.483 59.022)" fill="#027937"/>
      <rect id="Rectangle_3" data-name="Rectangle 3" width="20.407" height="10.387" transform="translate(-7.484 75.593)" fill="#027937"/>
      <path id="Path_8" data-name="Path 8" d="M999.8,949.437h20.424c0,3.46,0,6.873,0,10.286-.674.191-19.228.238-20.424.044Z" transform="translate(-1007.295 -857.219)" fill="#027937"/>
    </g>
  </g>
</svg>
