<svg id="Component_2_2" data-name="Component 2 – 2" xmlns="http://www.w3.org/2000/svg" width="273.077" height="46.877" viewBox="0 0 273.077 46.877">
  <rect id="Rectangle_438" data-name="Rectangle 438" width="26" height="26" transform="translate(4.077 18)" fill="#fff"/>
  <g id="Group_199" data-name="Group 199" transform="translate(-1787.506 -7294)">
    <path id="Subtraction_13" data-name="Subtraction 13" d="M31.006,46.805H2.66A2.662,2.662,0,0,1,0,44.151V2.658A2.654,2.654,0,0,1,2.66,0H20.851L33.664,13.066V44.149A2.662,2.662,0,0,1,31.006,46.805ZM8.04,22.987V38.178H25.557V22.987ZM23.4,36.025H17.889V33.672l5.516-.013v2.366Zm-7.682-.013H10.208V33.659h5.514v2.353ZM23.4,32.052H17.889v-2.54L23.4,29.5v2.553Zm-13.194-.015h0V29.5h5.514v2.526Zm5.512-4.173h0l-5.512-.027v-2.66h5.514v2.686Zm7.682-.027H17.889v-2.66l5.516.006v2.654Z" transform="translate(1787.506 7294.072)" fill="#23a566"/>
    <path id="Path_403" data-name="Path 403" d="M15.516,36.073l11.4,10.9V36.338h-10.1a2.551,2.551,0,0,1-1.262-.318Z" transform="translate(1794.252 7270.724)" fill="#1c8f5a"/>
    <path id="Path_401" data-name="Path 401" d="M27.647,43.117H17.52a2.659,2.659,0,0,1-2.657-2.657V30Z" transform="translate(1793.523 7264)" fill="#8ed1b1"/>
    <path id="Path_404" data-name="Path 404" d="M73.4,51.387A5.43,5.43,0,1,0,67.973,57,5.425,5.425,0,0,0,73.4,51.387Zm4.225,0a9.661,9.661,0,0,1-19.3,0c0-5.369,4.333-9.26,9.653-9.26S77.624,46.018,77.624,51.387Zm16.595,0A5.429,5.429,0,1,0,88.793,57,5.425,5.425,0,0,0,94.219,51.387Zm4.225,0a9.661,9.661,0,0,1-19.3,0c0-5.364,4.336-9.26,9.653-9.26s9.653,3.891,9.653,9.26Zm16.244.032c0-3.26-2.261-5.644-5.136-5.644a5.617,5.617,0,0,0,0,11.222,5.256,5.256,0,0,0,5.138-5.576Zm3.713-8.733V59.311c0,6.838-4.192,9.632-9.145,9.632a9.158,9.158,0,0,1-8.527-5.458l3.677-1.473a5.3,5.3,0,0,0,4.848,3.286c3.169,0,5.134-1.884,5.134-5.428V58.536h-.148a6.658,6.658,0,0,1-5.066,2.106,9.258,9.258,0,0,1,0-18.515,6.789,6.789,0,0,1,5.068,2.07h.148V42.69H118.4Zm6.616-9.749h-4.122v27.14h4.12ZM130.98,51.1l8.6-3.436A3.746,3.746,0,0,0,136.01,45.7,5.169,5.169,0,0,0,130.98,51.1Zm10.1,3.33,3.279,2.1a9.66,9.66,0,0,1-8.017,4.1,9.237,9.237,0,0,1-9.548-9.26,8.924,8.924,0,0,1,17.311-3.37l.436,1.052-12.863,5.127a4.915,4.915,0,0,0,4.664,2.8,5.537,5.537,0,0,0,4.738-2.562ZM42.719,48.973V45.044H56.475a12.628,12.628,0,0,1,.2,2.371A12.681,12.681,0,0,1,53.143,56.6a13.935,13.935,0,0,1-10.42,4.035c-8.235,0-15.158-6.457-15.158-14.378s6.923-14.378,15.158-14.378a14.523,14.523,0,0,1,10.238,3.961l-2.879,2.773a10.595,10.595,0,1,0-7.363,18.094,10.185,10.185,0,0,0,7.543-2.877,8.005,8.005,0,0,0,2.214-4.863Zm126.548,5.4a6.371,6.371,0,0,1-2.36,5.168,9.016,9.016,0,0,1-5.817,1.918,8.592,8.592,0,0,1-5.373-1.78,9.092,9.092,0,0,1-3.218-4.861l3.012-1.23a7.758,7.758,0,0,0,.855,1.984,7.044,7.044,0,0,0,1.266,1.541,6.673,6.673,0,0,0,1.643.991,5.181,5.181,0,0,0,1.882.343,5.465,5.465,0,0,0,3.525-1.094,3.675,3.675,0,0,0,1.37-2.979,3.531,3.531,0,0,0-1.13-2.634,10.725,10.725,0,0,0-3.969-2.053,39.16,39.16,0,0,1-3.662-1.44q-3.9-1.981-3.9-5.851a5.97,5.97,0,0,1,2.157-4.619,7.878,7.878,0,0,1,5.373-1.916,8.245,8.245,0,0,1,4.858,1.437,6.735,6.735,0,0,1,2.739,3.525l-2.943,1.232a4.24,4.24,0,0,0-1.645-2.259,4.671,4.671,0,0,0-2.943-.925,4.779,4.779,0,0,0-3.112,1.027,2.988,2.988,0,0,0-1.27,2.5,2.892,2.892,0,0,0,.995,2.191,17.164,17.164,0,0,0,4.757,2.191,11.883,11.883,0,0,1,5.3,3.112A6.515,6.515,0,0,1,169.268,54.376Zm3.243-17.967h3.148v7.735l-.138,2.329h.138a5.588,5.588,0,0,1,2.191-2.053,6.425,6.425,0,0,1,3.114-.823,6.108,6.108,0,0,1,4.721,1.778,6.931,6.931,0,0,1,1.677,5V60.913h-3.148V50.989q0-4.519-4-4.518a4.08,4.08,0,0,0-3.252,1.609,5.625,5.625,0,0,0-1.3,3.7v9.137h-3.148Zm26.077,25.052a8.03,8.03,0,0,1-6.093-2.534,8.943,8.943,0,0,1-2.394-6.4,9.039,9.039,0,0,1,2.327-6.364,7.674,7.674,0,0,1,5.955-2.568,7.572,7.572,0,0,1,5.919,2.43,9.529,9.529,0,0,1,2.225,6.74l-.034.343H193.317a5.464,5.464,0,0,0,1.643,3.969,5.3,5.3,0,0,0,8.487-1.505l2.807,1.37a8.343,8.343,0,0,1-3.148,3.319,8.583,8.583,0,0,1-4.518,1.2ZM193.556,50.51h9.617a4.092,4.092,0,0,0-1.437-2.875,4.859,4.859,0,0,0-3.423-1.164,4.631,4.631,0,0,0-3.08,1.094,5.3,5.3,0,0,0-1.677,2.943ZM217.1,61.461a8.027,8.027,0,0,1-6.093-2.534,8.944,8.944,0,0,1-2.4-6.4,9.04,9.04,0,0,1,2.329-6.364A7.674,7.674,0,0,1,216.9,43.6a7.575,7.575,0,0,1,5.919,2.43,9.529,9.529,0,0,1,2.225,6.74l-.034.343H211.832a5.464,5.464,0,0,0,1.643,3.969,5.3,5.3,0,0,0,8.487-1.505l2.807,1.37a8.334,8.334,0,0,1-3.15,3.319,8.57,8.57,0,0,1-4.516,1.2ZM212.071,50.51h9.617a4.092,4.092,0,0,0-1.437-2.875,4.86,4.86,0,0,0-3.423-1.164,4.631,4.631,0,0,0-3.08,1.094,5.286,5.286,0,0,0-1.677,2.943Zm21.987,10.676a4.852,4.852,0,0,1-3.421-1.266,4.729,4.729,0,0,1-1.37-3.525V47.017h-2.943V44.145h2.943V39.011h3.148v5.134h4.107v2.875h-4.107v8.349a3.122,3.122,0,0,0,.652,2.293,2.146,2.146,0,0,0,1.471.582,3.59,3.59,0,0,0,.718-.068,4.948,4.948,0,0,0,.684-.239l.993,2.8a8.456,8.456,0,0,1-2.875.445Zm18.627-4.928a4.547,4.547,0,0,1-1.916,3.7,7.581,7.581,0,0,1-4.827,1.507,7.722,7.722,0,0,1-4.448-1.3,7.346,7.346,0,0,1-2.737-3.491l2.8-1.2a5.361,5.361,0,0,0,1.78,2.36,4.8,4.8,0,0,0,5.1.171,1.841,1.841,0,0,0,1.027-1.541q0-1.607-2.464-2.36l-2.873-.72q-4.9-1.229-4.894-4.721A4.331,4.331,0,0,1,241.084,45a7.8,7.8,0,0,1,4.791-1.4,7.668,7.668,0,0,1,4,1.061,5.753,5.753,0,0,1,2.534,2.841L249.6,48.662a3.431,3.431,0,0,0-1.575-1.643,4.678,4.678,0,0,0-2.394-.616,4.153,4.153,0,0,0-2.225.614,1.783,1.783,0,0,0-.959,1.507q0,1.438,2.705,2.053l2.532.65q4.995,1.232,5,5.03Z" transform="translate(1807.898 7268.677)" fill="#787879"/>
  </g>
</svg>
