<svg id="Component_6_2" data-name="Component 6 – 2" xmlns="http://www.w3.org/2000/svg" width="64.364" height="62.883" viewBox="0 0 64.364 62.883">
  <path id="Path_525" data-name="Path 525" d="M0,0H54V46.75H0Z" transform="translate(8.364 7.25)" fill="#fff"/>
  <g id="Group_200" data-name="Group 200" transform="translate(-217.969 -6150.25)">
    <path id="Subtraction_21" data-name="Subtraction 21" d="M38.011,62.883H33.463c-7.024-1.281-14.173-2.513-21.086-3.7l-.025,0-.41-.071C8.029,58.43,3.983,57.733,0,57.033,0,45.58,0,34.083,0,22.964v-.048Q0,14.387,0,5.864c4.1-.709,8.3-1.441,11.924-2.072h.013C19.123,2.539,26.55,1.245,33.865,0h4.146V6.581c1.112.006,2.345.009,3.769.009,2.022,0,4.15-.007,5.861-.013,1.764-.006,3.813-.012,5.8-.012,3.114,0,5.662.016,8.019.052.095-.009.188-.014.279-.014a2.546,2.546,0,0,1,1.916.828,2.575,2.575,0,0,1,.635,2.015c.065,7.141.054,14.351.043,21.324v.065c-.009,6.425-.019,13.067.03,19.6-.016.328-.018.684-.02.969a6.226,6.226,0,0,1-.682,3.455,5.332,5.332,0,0,1-3.109.711h-.018c-.192.005-.39.01-.58.02-4.335-.022-8.477-.025-12.308-.025H42.831l-4.82,0v7.312Zm0-15.354v5.85H62.14V8.775H38.011v7.289c1.346-.288,2.521-.53,3.591-.738.076,2.359.071,4.761.067,7.085,0,.8,0,1.634,0,2.45h3.847c1.715,0,3.742,0,5.776.016A11.588,11.588,0,0,1,50,29.43a8.629,8.629,0,0,1-3.212,3.43,8.889,8.889,0,0,1-5.058,1.45A12.573,12.573,0,0,1,38,33.723c0,.661,0,1.334.006,1.984,0,.759,0,1.543.008,2.315H55.56v2.925H38.011V44.6H55.56v2.925Zm-26.28-28.21c-.078,7.036-.081,14.7-.007,23.436,1.492.121,2.956.244,4.351.365-.006-2.918,0-5.837.008-8.577h.009l.282.01h.006c.446.015.907.031,1.362.031a8.012,8.012,0,0,0,3.708-.713,7.749,7.749,0,0,0,4.011-5.459A9.235,9.235,0,0,0,23.8,20.722a7.5,7.5,0,0,0-5.4-1.751c-1.012,0-2.041.092-3.036.181l-.015,0-.023,0c-.982.087-2,.177-2.95.177C12.148,19.333,11.932,19.328,11.731,19.318Z" transform="translate(217.969 6150.25)" fill="#d24625"/>
    <path id="Path_424" data-name="Path 424" d="M73.736,23.587a10.289,10.289,0,0,1,9.623,9.579c-3.21.037-6.42.022-9.63.022,0-3.2-.007-6.405.008-9.6Z" transform="translate(187.37 6140.46)" fill="#d24625"/>
    <path id="Path_423" data-name="Path 423" d="M27.47,39.742c1.441-.066,3.225-.329,4.2,1.024a5.3,5.3,0,0,1,.095,4.8c-.834,1.506-2.72,1.36-4.175,1.536-.154-2.45-.139-4.9-.117-7.356Z" transform="translate(206.573 6133.782)" fill="#d24625"/>
  </g>
</svg>
