<svg id="Component_3_2" data-name="Component 3 – 2" xmlns="http://www.w3.org/2000/svg" xmlns:xlink="http://www.w3.org/1999/xlink" width="118" height="58.257" viewBox="0 0 118 58.257">
  <defs>
    <linearGradient id="linear-gradient" x1="0.5" x2="0.5" y2="1" gradientUnits="objectBoundingBox">
      <stop offset="0" stop-color="#00b7f0"/>
      <stop offset="1" stop-color="#1d62bd"/>
    </linearGradient>
  </defs>
  <path id="Path_523" data-name="Path 523" d="M0,0H118L59.667,58H0Z" transform="translate(0)" fill="#fff"/>
  <path id="Subtraction_12" data-name="Subtraction 12" d="M59.637,58.257H0V0H118L59.637,58.257ZM5.237,37.482h0L1.648,44.59A25.04,25.04,0,0,0,14.334,47.9l1.053-.008c4.184-.076,7.459-1.109,10.012-3.159.124-.1.24-.2.352-.3l.01-.009.063-.056-.441,2.268,9.833-.031L36.98,42.1a19.206,19.206,0,0,0,6.2.981,19.435,19.435,0,0,0,6.054-.927l1.23,4.453,17.642.017.043-10.276h3.754c9.04,0,14.438-4.612,14.438-12.338,0-4.319-1.309-7.4-4-9.406-2.654-1.985-6.684-2.951-12.319-2.951H58.373l.039,27.355L48.265,11.641H38.2L29.54,34.494c-.937-5.917-7.149-7.887-11.685-9.325a23.526,23.526,0,0,1-4.4-1.82c-1.358-.779-2.038-1.549-2.023-2.291A2.051,2.051,0,0,1,12.6,19.384a6.884,6.884,0,0,1,3.419-.738c.219,0,.446.006.676.018a19.212,19.212,0,0,1,3.587.451,23.931,23.931,0,0,1,4.913,1.841l4.034-7.017a31.415,31.415,0,0,0-13.156-3.1h-.026c-4.846,0-8.972,1.5-11.617,4.233A9.76,9.76,0,0,0,1.65,21.829a9.111,9.111,0,0,0,3.986,8.1,27.585,27.585,0,0,0,7.9,3.6,24.3,24.3,0,0,1,4.133,1.537c1.169.633,1.706,1.323,1.691,2.174a2.733,2.733,0,0,1-.765,1.81c-.752.775-1.906,1.137-3.742,1.173-.189,0-.373.006-.549.006a14.8,14.8,0,0,1-4.291-.561,20.932,20.932,0,0,1-4.776-2.184Zm37.946-2.448a10.611,10.611,0,0,1-3.72-.65l3.679-11.593h.071l3.619,11.625A10.986,10.986,0,0,1,43.183,35.034Zm27.528-6.661H68.149V19.031h2.562a8.005,8.005,0,0,1,4.347,1,3.738,3.738,0,0,1,1.31,1.422,4.715,4.715,0,0,1,.479,2.188,4.991,4.991,0,0,1-.48,2.258,3.775,3.775,0,0,1-1.309,1.458A7.881,7.881,0,0,1,70.711,28.374Z" transform="translate(0)" fill="url(#linear-gradient)"/>
</svg>
