<svg id="coffee" xmlns="http://www.w3.org/2000/svg" width="24" height="24" viewBox="0 0 24 24">
  <g id="Group_3835" data-name="Group 3835">
    <path id="Path_9616" data-name="Path 9616" d="M0,0H24V24H0Z" fill="none"/>
  </g>
  <g id="Group_3836" data-name="Group 3836">
    <path id="Path_9617" data-name="Path 9617" d="M18.5,3H6A2.006,2.006,0,0,0,4,5v5.71A7.19,7.19,0,0,0,10.78,18,7.007,7.007,0,0,0,18,11V10h.5a3.5,3.5,0,0,0,0-7ZM16,5V8H6V5Zm0,5v1A5,5,0,0,1,6,11V10M18.5,8H18V5h.5a1.5,1.5,0,0,1,0,3ZM4,19H20v2H4Z"/>
  </g>
</svg>
