<svg id="groups_black_24dp" xmlns="http://www.w3.org/2000/svg" width="25" height="25" viewBox="0 0 20 20">
  <rect id="Rectangle_7159" data-name="Rectangle 7159" width="20" height="20" fill="none"/>
  <g id="Group_5001" data-name="Group 5001" transform="translate(0 5)">
    <path id="Path_10099" data-name="Path 10099" d="M3.333,11.833a1.667,1.667,0,1,0-1.667-1.667A1.672,1.672,0,0,0,3.333,11.833Zm.942.917a5.819,5.819,0,0,0-.942-.083,5.792,5.792,0,0,0-2.317.483A1.676,1.676,0,0,0,0,14.692V16H3.75V14.658A3.749,3.749,0,0,1,4.275,12.75Zm12.392-.917A1.667,1.667,0,1,0,15,10.167,1.672,1.672,0,0,0,16.667,11.833ZM20,14.692a1.676,1.676,0,0,0-1.017-1.542,5.665,5.665,0,0,0-3.258-.4,3.749,3.749,0,0,1,.525,1.908V16H20Zm-6.467-2.317A8.7,8.7,0,0,0,10,11.625a8.842,8.842,0,0,0-3.533.75A2.49,2.49,0,0,0,5,14.658V16H15V14.658A2.49,2.49,0,0,0,13.533,12.375ZM6.725,14.333c.075-.192.108-.325.758-.575a7.019,7.019,0,0,1,5.033,0c.642.25.675.383.758.575ZM10,7.667a.833.833,0,1,1-.833.833A.836.836,0,0,1,10,7.667M10,6a2.5,2.5,0,1,0,2.5,2.5A2.5,2.5,0,0,0,10,6Z" transform="translate(0 -6)" fill="#ee9208"/>
  </g>
</svg>
