<svg width="25" height="25" viewBox="0 0 25 25" fill="none" xmlns="http://www.w3.org/2000/svg">
<path d="M19.6666 3.8675H18.6253V1.7H16.5416V3.8675H8.20905V1.7H6.1253V3.8675H5.08405C4.52086 3.8803 3.98561 4.11543 3.5952 4.52154C3.20478 4.92765 2.99091 5.47174 3.0003 6.035V21.21C2.99091 21.7733 3.20478 22.3174 3.5952 22.7235C3.98561 23.1296 4.52086 23.3647 5.08405 23.3775H19.6666C20.2297 23.3647 20.765 23.1296 21.1554 22.7235C21.5458 22.3174 21.7597 21.7733 21.7503 21.21V6.035C21.7597 5.47174 21.5458 4.92765 21.1554 4.52154C20.765 4.11543 20.2297 3.8803 19.6666 3.8675ZM19.6666 21.21H5.08405V10.3713H19.6666V21.21ZM5.08405 8.2V6.035H19.6666V8.2H5.08405ZM10.8753 19.5413L17.0528 13.1138L15.9491 11.965L10.8753 17.2425L8.6778 14.95L7.57405 16.0988L10.8753 19.5413Z" fill="#105220"/>
</svg>
